<svg xmlns="http://www.w3.org/2000/svg" width="702" height="655" viewBox="0 0 702 655" version="1.1"><path d="M 449.150 36.628 C 448.974 40.301, 447.610 41.661, 443.500 42.262 L 440.500 42.700 443.595 42.850 C 447.601 43.044, 450.300 40.177, 449.725 36.338 L 449.300 33.500 449.150 36.628 M 174.420 37.973 C 177.719 43.135, 175.295 49, 169.862 49 C 166.307 49, 163.951 46.919, 163.017 42.951 L 162.205 39.500 162.102 42.576 C 162.035 44.592, 162.797 46.400, 164.314 47.826 C 171.202 54.296, 181.159 44.941, 174.920 37.861 L 172.840 35.500 174.420 37.973 M 561.750 57.689 C 560.788 57.941, 560 58.564, 560 59.073 C 560 59.583, 559.485 59.888, 558.856 59.750 C 558.227 59.612, 556.344 61.410, 554.671 63.745 C 552.318 67.028, 551.531 69.338, 551.198 73.939 C 550.409 84.841, 555.827 91.907, 567.593 95.321 C 572.221 96.664, 573.157 96.640, 577.845 95.052 C 583.733 93.059, 586.265 91.064, 589.630 85.770 C 592.526 81.212, 592.573 79.992, 589.961 77.189 C 586.706 73.695, 583.886 74.428, 580.759 79.579 C 577.172 85.489, 572.345 87.747, 568.048 85.525 C 563.869 83.364, 562 80.193, 562 75.263 C 562 71.482, 562.387 70.741, 565.250 69.045 C 570.239 66.088, 571 65.155, 571 61.996 C 571 57.849, 567.455 56.198, 561.750 57.689 M 561.048 59.949 C 560.249 60.455, 559.273 60.669, 558.880 60.426 C 557.682 59.685, 552 72.105, 552 75.463 C 552 77.193, 553.155 80.926, 554.567 83.759 C 556.766 88.172, 558.008 89.348, 563.227 91.956 C 569.885 95.283, 571.588 95.520, 577.351 93.919 C 582.711 92.431, 590 85.022, 590 81.061 C 590 77, 586.664 75.089, 583.917 77.575 C 582.863 78.529, 582 79.803, 582 80.405 C 582 82.112, 575.370 86.981, 572.279 87.545 C 566.487 88.601, 560 81.936, 560 74.928 C 560 71.082, 560.149 70.897, 567.877 65.145 C 571.329 62.576, 570.047 58.994, 565.683 59.015 C 563.932 59.024, 561.846 59.444, 561.048 59.949 M 105.182 64.280 C 104.598 64.985, 103.986 69.502, 103.823 74.320 C 103.660 79.137, 103.370 82.611, 103.180 82.040 C 102.989 81.467, 100.511 81.079, 97.667 81.175 C 92.610 81.346, 92.591 81.358, 96.773 81.733 C 99.123 81.944, 100.784 82.541, 100.464 83.059 C 100.144 83.576, 100.823 84, 101.972 84 C 104.548 84, 104.749 83.389, 105.332 73.817 C 105.589 69.592, 106.096 65.654, 106.458 65.067 C 107.712 63.039, 109.938 64.014, 112.583 67.750 C 114.043 69.813, 114.916 70.600, 114.522 69.500 C 114.129 68.400, 113.700 66.857, 113.568 66.071 C 113.122 63.394, 107.002 62.088, 105.182 64.280 M 325 67.480 C 316.307 69.995, 306.286 75.768, 300.319 81.700 C 292.378 89.594, 289.597 93.988, 285.877 104.518 C 283.141 112.265, 282.700 114.875, 282.670 123.500 C 282.637 132.817, 282.893 134.131, 286.418 142.739 C 292.339 157.200, 301.466 167.444, 313.877 173.560 C 331.335 182.162, 346.643 182.284, 364.679 173.967 C 375.859 168.811, 384.355 160.150, 390.583 147.561 C 394.107 140.439, 395.249 136.842, 395.923 130.750 C 396.835 122.495, 395.907 110.758, 393.885 105 C 389.016 91.131, 377.537 78.251, 364.542 72.077 C 360.053 69.944, 354.607 67.707, 352.440 67.105 C 347.153 65.637, 330.589 65.864, 325 67.480 M 509.667 68.065 C 508.872 69.200, 508.369 70.888, 508.550 71.815 C 509.876 78.602, 510.023 78.846, 513.191 79.542 C 515.793 80.113, 516.719 79.830, 518.192 78.011 C 520.767 74.831, 520.556 69.503, 517.777 67.557 C 514.703 65.403, 511.386 65.611, 509.667 68.065 M 512.250 67.662 C 510.329 68.437, 510.767 74.495, 512.935 77.139 C 514.667 79.251, 515.034 79.340, 516.413 77.987 C 521.245 73.245, 518.050 65.322, 512.250 67.662 M 325.500 69.412 C 320.001 70.779, 310.278 75.506, 305.323 79.223 C 297.752 84.902, 289.877 96.935, 286.676 107.716 C 282.547 121.625, 283.562 132.776, 290.225 146.734 C 303.646 174.845, 337.084 186.092, 365.137 171.931 C 376.607 166.141, 388.117 152.450, 392.259 139.671 C 394.941 131.396, 395.116 115.897, 392.623 107.500 C 390.312 99.718, 383.331 88.514, 377.284 82.881 C 371.136 77.154, 361.157 71.612, 353.356 69.592 C 346.145 67.724, 332.645 67.637, 325.500 69.412 M 113.593 75.500 C 114.636 83.277, 114.976 84.140, 116.783 83.610 C 122.981 81.792, 125.540 81.964, 128.500 84.398 C 130.988 86.444, 131.312 87.176, 130.397 88.683 C 129.543 90.089, 127.621 90.613, 121.897 91 C 113.960 91.537, 114.004 91.500, 113.302 98 C 112.444 105.939, 111.822 108.025, 110.026 108.986 C 106.663 110.786, 105 107.788, 105 99.929 C 105 95.534, 104.596 93, 103.894 93 C 102.114 93, 103.152 108.853, 105.009 110.027 C 107.163 111.388, 110.329 111.211, 112.523 109.607 C 114.031 108.504, 114.474 106.782, 114.648 101.357 C 114.769 97.586, 114.897 94.162, 114.934 93.750 C 114.970 93.338, 118.150 93, 122 93 C 127.667 93, 129.381 92.619, 131 91 C 133.898 88.102, 133.459 85.822, 129.482 83.114 C 126.443 81.044, 125.250 80.813, 120.489 81.372 L 115 82.017 114.985 78.259 C 114.976 76.191, 114.539 73.825, 114.013 73 C 113.354 71.967, 113.224 72.744, 113.593 75.500 M 178.655 76.829 C 176.527 79.180, 176.532 83.369, 178.664 85.128 C 180.168 86.368, 180.216 86.290, 179.164 84.316 C 177.442 81.085, 177.747 78.206, 179.934 77.035 C 182.706 75.552, 185.071 75.755, 187.171 77.655 C 189.403 79.675, 189.620 78.763, 187.429 76.571 C 185.307 74.450, 180.685 74.585, 178.655 76.829 M 330.108 76.019 C 324.286 77.246, 314.435 81.975, 309.630 85.851 C 295.126 97.549, 288.576 118.702, 294.009 136.295 C 301.126 159.336, 326.597 175.062, 347.944 169.593 C 367.217 164.655, 380.971 151.727, 385.516 134.276 C 391.337 111.928, 378.630 87.402, 356.886 79.016 C 348.164 75.653, 337.505 74.460, 330.108 76.019 M 329.363 77.972 C 318.933 80.203, 305.127 90.073, 300.682 98.475 C 293.898 111.297, 291.955 121.374, 294.415 130.975 C 298.359 146.368, 307.891 158.197, 321.596 164.706 C 328.770 168.113, 329.827 168.331, 339.362 168.374 C 349.311 168.418, 349.662 168.339, 358.198 164.149 C 383.236 151.858, 392.219 123.753, 378.661 100.129 C 370.781 86.399, 357.457 78.261, 341.583 77.483 C 337.137 77.265, 331.638 77.485, 329.363 77.972 M 87.440 84.451 C 85.775 86.993, 86.239 90.821, 88.385 92.235 C 89.997 93.297, 95 93.167, 95 92.063 C 95 91.548, 93.537 90.986, 91.750 90.813 C 89.019 90.550, 88.448 90.049, 88.176 87.676 C 87.928 85.511, 88.335 84.725, 89.915 84.312 C 91.049 84.015, 91.731 83.374, 91.430 82.886 C 90.489 81.364, 89.108 81.906, 87.440 84.451 M 482.719 83.424 C 481.935 84.208, 481.341 86.552, 481.397 88.635 C 481.528 93.441, 485.198 96.016, 489.682 94.448 C 492.076 93.611, 492.546 92.841, 492.803 89.325 C 493.050 85.955, 492.684 84.892, 490.830 83.594 C 488.009 81.618, 484.596 81.546, 482.719 83.424 M 484.427 84.765 C 480.967 87.135, 483.211 93, 487.578 93 C 491.193 93, 492.976 88.736, 490.504 86.004 C 488.640 83.945, 486.317 83.471, 484.427 84.765 M 98.212 92.150 C 100.039 92.818, 101.509 92.802, 102.712 92.101 C 104.135 91.273, 103.582 91.071, 100 91.109 C 95.846 91.154, 95.709 91.234, 98.212 92.150 M 227.186 98.055 C 225.913 98.565, 225.152 99.437, 225.495 99.992 C 225.838 100.546, 225.641 101, 225.059 101 C 223.529 101, 223.757 106.285, 225.383 108.509 C 226.885 110.563, 233.235 111.165, 234.981 109.419 C 237.189 107.211, 237.201 102.525, 235.006 99.734 C 232.756 96.874, 231.046 96.507, 227.186 98.055 M 435 97.694 C 430.917 99.153, 429.633 105.453, 432.829 108.345 C 436.754 111.897, 444.020 108.904, 443.985 103.750 C 443.966 100.939, 443.098 99.614, 440.316 98.150 C 437.973 96.916, 437.330 96.861, 435 97.694 M 227.750 100.080 C 225.617 101.322, 225.425 106.278, 227.445 107.954 C 231.716 111.499, 237.275 105.171, 233.527 101.030 C 231.482 98.770, 230.326 98.580, 227.750 100.080 M 434.750 100.080 C 431.986 101.690, 432.456 106.795, 435.496 108.180 C 437.558 109.120, 438.340 109.002, 439.996 107.504 C 442.620 105.129, 442.537 102.490, 439.777 100.557 C 437.193 98.746, 437.061 98.734, 434.750 100.080 M 522.267 114.114 C 517.337 115.539, 511.409 121.750, 510.009 126.958 C 507.780 135.252, 510.413 143.114, 517.027 147.905 C 526.548 154.802, 540.980 151.840, 546.023 141.956 C 548.383 137.330, 548.672 128.184, 546.585 124.200 C 544.654 120.515, 539.101 115.349, 535.685 114.061 C 532.338 112.799, 526.742 112.822, 522.267 114.114 M 157 117.227 C 147.580 121.886, 141 131.663, 141 141 C 141 146.229, 144.124 154.132, 147.806 158.216 C 152.904 163.870, 157.928 165.953, 166.500 165.968 C 178.548 165.989, 185.823 161.225, 190.928 149.972 C 196.317 138.091, 189.971 123.630, 176.300 116.637 C 171.580 114.223, 162.514 114.500, 157 117.227 M 521.459 116.880 C 513.671 120.417, 508.653 129.697, 510.955 136.301 C 512.615 141.062, 514.687 143.761, 519.186 147.020 C 528.703 153.914, 542.880 148.586, 546.017 136.937 C 548.110 129.165, 543.906 120.224, 536.599 116.905 C 531.413 114.550, 526.604 114.542, 521.459 116.880 M 588.102 117.194 C 588.044 118.736, 588.963 120.896, 590.250 122.243 C 591.487 123.538, 591.884 123.807, 591.132 122.840 C 590.380 121.873, 589.413 119.601, 588.984 117.791 C 588.260 114.734, 588.197 114.692, 588.102 117.194 M 629 118 C 627.762 119.238, 627 121.333, 627 123.500 C 627 132.543, 639.441 133.749, 641.526 124.908 C 641.981 122.980, 641.457 121.508, 639.480 119.158 C 636.334 115.420, 632.054 114.946, 629 118 M 158.422 118.418 C 151.248 121.542, 143.852 130.650, 142.507 138.016 C 141.730 142.270, 144.114 149.911, 147.870 155.208 C 156.175 166.920, 175.283 167.747, 184.529 156.794 C 191.081 149.032, 192.772 139.292, 188.942 131.379 C 186.563 126.466, 180.275 120.431, 175.422 118.403 C 171.215 116.645, 162.477 116.653, 158.422 118.418 M 631.500 117.743 C 628.887 118.381, 628.034 119.814, 628.015 123.595 C 627.987 129.234, 634.694 132.205, 638.345 128.171 C 640.294 126.018, 640.536 120.674, 638.750 119.245 C 636.974 117.824, 633.834 117.173, 631.500 117.743 M 611.655 122.829 C 610.745 123.835, 610 126.015, 610 127.674 C 610 131.786, 612.912 134.251, 617.156 133.730 L 620.500 133.320 616.785 133.160 C 612.780 132.987, 611 131.020, 611 126.766 C 611 121.893, 616.625 120.198, 619.443 124.223 C 620.299 125.445, 621 125.927, 621 125.294 C 621 123.378, 618 121, 615.584 121 C 614.333 121, 612.565 121.823, 611.655 122.829 M 524.110 123.346 C 516.332 127.819, 517.833 140.940, 526.304 142.529 C 536.508 144.444, 543.418 132.606, 536.156 125.650 C 532.793 122.427, 527.476 121.410, 524.110 123.346 M 160.459 125.833 C 151.292 130.103, 147.865 139.124, 152.138 147.737 C 155.566 154.646, 159.980 157.283, 167.263 156.774 C 173.396 156.345, 176.791 154.500, 180.438 149.615 C 183.486 145.532, 183.343 135.682, 180.171 131.235 C 175.706 124.975, 167.265 122.662, 160.459 125.833 M 523.455 126.455 C 517.647 132.263, 522.093 141.886, 530 140.621 C 534.496 139.902, 537 136.804, 537 131.962 C 537 124.812, 528.538 121.372, 523.455 126.455 M 159.922 128.274 C 152.598 133.209, 150.313 140.136, 153.752 146.980 C 159.136 157.697, 173.788 157.680, 179.763 146.949 C 183.199 140.780, 182.377 136.473, 176.619 130.463 C 172.790 126.467, 171.870 126, 167.819 126 C 164.770 126, 162.196 126.741, 159.922 128.274 M 456 128.977 C 454.766 129.755, 454.485 132.995, 454.418 147.212 L 454.336 164.500 454.918 147.711 C 455.523 130.256, 455.858 129.055, 460.128 129.015 C 463.359 128.985, 463.944 131.546, 464.251 147.070 L 464.556 162.500 464.778 146.450 C 464.936 135.039, 464.653 130.053, 463.800 129.200 C 462.372 127.772, 458.104 127.650, 456 128.977 M 27 139 C 22.315 143.685, 25.930 151.131, 32.750 150.840 L 36.500 150.680 33 150.262 C 28.529 149.728, 26 147.435, 26 143.916 C 26 138.332, 32.881 135.881, 37 140 C 38.100 141.100, 39 141.576, 39 141.057 C 39 139.429, 34.676 137, 31.777 137 C 30.250 137, 28.100 137.900, 27 139 M 644.174 140.314 C 641.195 143.486, 641.261 148.957, 644.314 151.826 C 646.585 153.959, 652.362 154.841, 653.371 153.209 C 653.640 152.774, 652.296 152.601, 650.385 152.824 C 645.663 153.375, 643 150.885, 643 145.918 C 643 143.033, 643.620 141.657, 645.635 140.073 C 647.084 138.933, 647.837 138, 647.309 138 C 646.781 138, 645.370 139.042, 644.174 140.314 M 235 151.972 C 232.912 152.480, 232.450 153.253, 232.199 156.667 C 231.842 161.500, 233.791 164, 237.916 164 C 241.455 164, 244 161.194, 244 157.294 C 244 152.856, 240.318 150.679, 235 151.972 M 615.608 153.517 C 619.322 157.231, 617.519 161.948, 612.372 161.985 C 609.875 162.003, 608.188 160.217, 607.017 156.314 L 606.172 153.500 606.086 156.139 C 605.986 159.218, 608.551 162.550, 611.733 163.475 C 614.341 164.233, 619 160.253, 619 157.268 C 619 154.839, 616.237 151, 614.489 151 C 613.588 151, 613.986 151.895, 615.608 153.517 M 234.667 153.667 C 234.300 154.033, 234 155.825, 234 157.648 C 234 160.353, 234.461 161.078, 236.513 161.593 C 237.954 161.954, 239.660 161.697, 240.513 160.989 C 242.304 159.503, 242.458 155.858, 240.800 154.200 C 239.506 152.906, 235.753 152.580, 234.667 153.667 M 67.394 156.416 C 67.095 157.194, 66.997 159.103, 67.175 160.658 C 67.573 164.118, 71.979 166.694, 74.745 165.083 C 76.169 164.254, 75.795 164.055, 72.769 164.030 C 69.665 164.005, 68.936 163.592, 68.429 161.572 C 68.094 160.237, 68.115 158.212, 68.477 157.072 C 69.209 154.766, 68.250 154.185, 67.394 156.416 M 427.223 168.557 C 424.685 170.334, 424.344 173.719, 426.417 176.559 C 427.671 178.276, 429.341 178.538, 440.884 178.829 L 453.934 179.158 454.272 189.829 L 454.610 200.500 454.555 189 L 454.500 177.500 441.022 177 L 427.543 176.500 426.577 173.745 C 425.270 170.019, 426.779 168.705, 433.275 167.916 L 438.500 167.282 433.973 167.141 C 431.284 167.057, 428.542 167.632, 427.223 168.557 M 489.401 167.868 C 490.996 168.216, 492.652 169.400, 493.080 170.500 C 493.619 171.882, 493.881 172.021, 493.930 170.950 C 494.034 168.640, 491.927 166.985, 489.050 167.118 C 486.608 167.232, 486.622 167.263, 489.401 167.868 M 492.356 175.798 C 491.441 177.249, 489.305 177.523, 477.891 177.657 L 464.500 177.814 464.218 190.093 C 464.058 197.053, 463.463 202.942, 462.845 203.686 C 461.111 205.777, 457.429 205.256, 456.220 202.750 C 455.556 201.372, 455.115 201.081, 455.083 202 C 454.993 204.588, 456.674 206.250, 459.383 206.250 C 464.467 206.250, 465 204.838, 465 191.378 L 465 179 477.389 179 C 488.104 179, 490.098 178.741, 492.139 177.086 C 493.438 176.033, 494.259 174.930, 493.965 174.634 C 493.670 174.338, 492.946 174.862, 492.356 175.798 M 113.849 176.670 C 111.367 177.329, 109.490 182.644, 110.608 185.844 C 111.347 187.958, 112.272 188.562, 115.144 188.803 C 119.685 189.184, 122.087 186.982, 121.833 182.669 C 121.625 179.135, 120.238 176.735, 118.887 177.570 C 118.399 177.871, 118 177.641, 118 177.059 C 118 175.985, 116.839 175.877, 113.849 176.670 M 576.203 177.256 C 575.630 177.946, 574.857 179.724, 574.485 181.205 C 573.956 183.310, 574.366 184.457, 576.359 186.450 C 579.450 189.541, 580.930 189.630, 584.365 186.927 C 587.532 184.437, 587.791 180.791, 585 178 C 582.759 175.759, 577.794 175.339, 576.203 177.256 M 112.809 179.953 C 110.845 181.544, 110.717 182.084, 111.765 184.383 C 112.660 186.348, 113.695 187, 115.920 187 C 119.371 187, 119.685 186.637, 120.151 182.112 C 120.465 179.059, 120.230 178.695, 117.773 178.433 C 116.246 178.269, 114.063 178.938, 112.809 179.953 M 151.750 179.080 C 147.693 181.443, 147.476 183.891, 148.036 221 L 148.573 256.500 148.786 220.323 L 149 184.145 151.635 182.073 C 153.084 180.933, 154.547 180.007, 154.885 180.015 C 156.741 180.062, 158.240 182.120, 158.375 184.809 C 158.609 189.455, 160 189.894, 160 185.322 C 160 179.386, 156.183 176.498, 151.750 179.080 M 173.655 179.829 C 172.153 181.489, 172.009 186.999, 172.099 239.579 C 172.154 271.435, 172.534 301.325, 172.944 306 C 173.364 310.776, 173.758 285.283, 173.845 247.817 L 174 181.135 176.118 180.463 C 177.535 180.013, 178.845 180.404, 180.081 181.645 C 181.708 183.280, 181.969 185.611, 182.273 201.259 C 182.466 211.188, 183.056 219.456, 183.611 220.011 C 184.269 220.669, 185.769 220.145, 188.052 218.457 C 193.501 214.431, 209.648 206.005, 218.972 202.322 C 237.281 195.090, 253.667 192.417, 274 193.347 C 298.459 194.466, 312.580 198.740, 349.126 216.086 C 380.382 230.922, 389.184 234.642, 402.137 238.490 C 418.911 243.473, 425.880 244.307, 446 243.743 C 461.099 243.319, 464.735 242.888, 472.500 240.599 C 497.616 233.196, 516.843 222.772, 537.608 205.298 C 543.337 200.477, 546.487 199.814, 547.345 203.250 C 547.654 204.488, 547.680 250.040, 547.403 304.477 C 546.943 394.963, 546.757 403.611, 545.235 405.293 C 543.647 407.048, 538.344 410.657, 524 419.749 C 510.264 428.455, 486.311 437.847, 468 441.708 C 456.090 444.219, 425.552 444.183, 411.500 441.641 C 394.141 438.501, 374.343 431.220, 344.500 417 C 323.725 407.101, 311.741 402.202, 300.746 399.115 C 276.437 392.289, 254.838 392.572, 230.500 400.035 C 218.102 403.837, 197.136 415.528, 186 424.851 L 182.500 427.780 182.234 515.438 C 182.087 563.650, 182.335 604.512, 182.783 606.242 L 183.598 609.387 206.549 609.484 C 219.172 609.538, 230.063 609.402, 230.750 609.184 C 232.396 608.660, 232.342 606.476, 230.642 604.821 C 229.896 604.095, 225.600 600.370, 221.096 596.545 C 214.323 590.793, 212.958 589.150, 213.203 587.045 C 213.430 585.102, 214.152 584.425, 216.254 584.183 C 218.447 583.931, 220.197 585, 224.841 589.430 C 228.049 592.490, 230.972 594.695, 231.337 594.330 C 231.702 593.965, 232 589.747, 232 584.956 L 232 576.246 222.448 567.478 C 214.481 560.165, 212.945 558.277, 213.198 556.105 C 213.430 554.104, 214.134 553.427, 216.233 553.185 C 218.448 552.930, 219.959 553.925, 224.204 558.435 C 227.085 561.496, 229.959 564, 230.590 564 C 232.740 564, 233.854 550.376, 232.085 545.723 C 231.581 544.398, 227.085 539.785, 222.093 535.470 C 212.680 527.335, 210.996 524.914, 213.040 522.452 C 215.210 519.837, 217.866 520.911, 224.212 526.968 C 227.651 530.250, 230.830 532.570, 231.277 532.123 C 231.724 531.676, 231.957 527.754, 231.795 523.408 L 231.500 515.506 226.089 512.776 C 216.678 508.028, 212.425 502.868, 209.811 493.026 C 208.137 486.722, 208.097 486.670, 208.662 491.500 C 208.983 494.250, 209.848 497.974, 210.583 499.776 C 212.461 504.380, 221.023 512.400, 226.435 514.626 L 230.993 516.500 230.996 522.583 C 230.998 525.929, 230.702 528.965, 230.337 529.330 C 229.972 529.695, 227.080 527.520, 223.911 524.497 C 220.742 521.473, 217.315 519, 216.297 519 C 213.518 519, 210 521.849, 210 524.100 C 210 526.454, 216.439 533.538, 224.905 540.500 L 230.986 545.500 230.993 553.250 C 230.997 557.513, 230.644 561, 230.208 561 C 229.773 561, 227.462 559.009, 225.073 556.575 C 219.982 551.387, 216.775 550.262, 213.394 552.477 C 211.052 554.012, 210.272 557.405, 211.765 559.560 C 212.457 560.558, 220.714 568.122, 227.811 574.258 C 230.829 576.868, 231 577.389, 231 584.008 C 231 591.889, 230.178 592.554, 226.232 587.864 C 222.471 583.394, 217.704 581.555, 214.204 583.225 C 212.458 584.058, 211.392 585.447, 211.194 587.146 C 210.937 589.359, 212.365 591.094, 220.194 598.085 C 225.312 602.654, 229.650 606.754, 229.833 607.196 C 230.017 607.638, 219.779 608, 207.083 608 L 184 608 184 518.696 L 184 429.392 187.250 426.330 C 191.769 422.071, 203.979 414.084, 213.500 409.157 C 234.057 398.520, 254.665 394.716, 279.543 396.965 C 298.671 398.694, 310.924 402.896, 346 419.754 C 354.525 423.851, 363.750 428.079, 366.500 429.148 C 369.250 430.218, 373.411 431.974, 375.746 433.050 C 380.113 435.062, 392.326 438.912, 404.287 442.046 C 418.454 445.757, 441.293 446.970, 458.500 444.924 C 479.877 442.383, 505.360 433.220, 525.458 420.849 C 530.237 417.907, 536.252 414.222, 538.824 412.659 C 541.396 411.097, 544.737 408.650, 546.250 407.222 L 549 404.626 549 303.013 C 549 225.314, 548.718 201.118, 547.800 200.200 C 545.659 198.059, 542.373 198.921, 537.891 202.798 C 521.035 217.378, 504.299 227.339, 483.605 235.108 C 470.101 240.178, 459.271 241.992, 442.500 241.993 C 424.081 241.995, 413.955 240.496, 398.728 235.516 C 385.500 231.190, 378.881 228.347, 354.500 216.520 C 316.513 198.093, 304.247 193.906, 282.707 192.018 C 270.298 190.930, 249.013 191.931, 239.089 194.069 C 225.594 196.976, 201.241 207.468, 189.512 215.427 C 187.427 216.842, 185.334 218, 184.860 218 C 184.387 218, 184 210.334, 184 200.965 C 184 186.992, 183.711 183.488, 182.391 181.473 C 181.505 180.122, 180.380 179.265, 179.891 179.568 C 179.401 179.870, 179 179.641, 179 179.059 C 179 177.338, 175.446 177.850, 173.655 179.829 M 577.200 179.200 C 574.341 182.059, 576.648 186, 581.181 186 C 583.317 186, 584.108 185.417, 584.593 183.487 C 584.954 182.046, 584.697 180.340, 583.989 179.487 C 582.503 177.696, 578.858 177.542, 577.200 179.200 M 635.705 184.250 C 634.782 184.938, 633.746 186.933, 633.402 188.684 C 632.554 192.999, 636.411 197.052, 641.205 196.885 C 644.482 196.771, 644.479 196.766, 640.582 196.015 C 633.973 194.742, 632.060 189.849, 636.455 185.455 C 639.035 182.874, 638.565 182.119, 635.705 184.250 M 644.772 184.230 C 647.940 185.757, 648.710 189.697, 646.569 193.429 L 644.823 196.470 646.912 194.580 C 648.097 193.507, 649 191.460, 649 189.845 C 649 186.900, 645.940 182.949, 643.750 183.068 C 643.063 183.105, 643.522 183.628, 644.772 184.230 M 99.374 200.500 C 99.376 206.550, 99.541 208.896, 99.740 205.713 C 99.939 202.531, 99.937 197.581, 99.736 194.713 C 99.535 191.846, 99.372 194.450, 99.374 200.500 M 158.459 233.500 C 158.460 257.700, 158.590 267.457, 158.749 255.182 C 158.908 242.907, 158.908 223.107, 158.749 211.182 C 158.589 199.257, 158.459 209.300, 158.459 233.500 M 395.455 198.455 C 394.105 199.805, 393 201.850, 393 203 C 393 205.678, 397.294 210, 399.955 210 C 402.864 210, 406 206.485, 406 203.223 C 406 196.530, 400.064 193.846, 395.455 198.455 M 395.837 200.459 C 394.939 202.428, 395.048 203.424, 396.381 205.459 C 398.341 208.450, 401.034 208.725, 403.345 206.171 C 405.496 203.794, 405.440 201.709, 403.171 199.655 C 400.469 197.210, 397.152 197.573, 395.837 200.459 M 246.496 202.550 C 230.336 205.268, 207.550 214.887, 191.511 225.762 C 187.668 228.368, 183.962 231.625, 183.276 233 C 182.370 234.818, 182.025 243.253, 182.015 263.917 C 182.007 279.546, 182.245 292.088, 182.544 291.789 C 182.844 291.490, 183.304 278.702, 183.568 263.372 C 183.831 248.043, 184.266 234.825, 184.534 234 C 185.226 231.867, 198.742 222.655, 208.032 217.984 C 221.287 211.320, 236.074 206.269, 247.701 204.436 C 259.492 202.577, 280.555 202.876, 293 205.080 C 302.080 206.689, 321.970 213.328, 331.500 217.932 C 335.900 220.058, 348.792 226.337, 360.149 231.886 C 371.506 237.435, 384.556 243.151, 389.149 244.590 C 393.742 246.028, 399.822 248.038, 402.660 249.055 C 412.342 252.526, 429.001 254.298, 446.500 253.718 C 464.213 253.132, 471.804 251.763, 486.219 246.560 C 495.631 243.162, 511.642 235.613, 516.919 232.085 C 532.107 221.928, 536.664 219, 537.278 219 C 538.172 219, 538.049 284.668, 537.150 287.677 C 536.793 288.875, 533.401 292.137, 529.613 294.927 C 521.404 300.974, 521.792 301.640, 530.238 296 C 533.532 293.800, 536.554 292, 536.953 292 C 537.352 292, 538.201 290.854, 538.839 289.453 C 540.356 286.124, 540.493 217.422, 538.984 216.490 C 538.425 216.145, 532.238 219.659, 525.234 224.299 C 511.473 233.417, 503.524 237.683, 489.502 243.477 C 475.677 249.190, 465.938 251.073, 447 251.695 C 415.810 252.719, 397.607 248.030, 358 228.768 C 345.625 222.750, 331.675 216.098, 327 213.987 C 316.159 209.090, 296.436 203.368, 285.804 202.035 C 274.773 200.651, 256.347 200.893, 246.496 202.550 M 58.052 213.445 C 53.915 217.848, 57.525 223.668, 63.799 222.711 C 66.270 222.335, 66.225 222.287, 63.273 222.150 C 61.037 222.046, 59.543 221.232, 58.408 219.500 C 56.906 217.208, 56.902 216.798, 58.363 214.569 C 59.239 213.231, 61.204 211.949, 62.728 211.718 C 65.478 211.303, 65.480 211.298, 62.924 211.150 C 61.343 211.058, 59.462 211.944, 58.052 213.445 M 124.135 216 C 123.802 221.037, 122.845 221.459, 110.288 222.121 L 98.500 222.742 110.217 222.621 C 123.389 222.485, 125.502 221.577, 124.729 216.385 C 124.337 213.754, 124.285 213.720, 124.135 216 M 88.187 233.685 C 87.979 246.144, 88.764 249.444, 92.151 250.329 C 94.619 250.975, 99 248.731, 99 246.822 C 99 246.170, 98.224 246.392, 97.171 247.345 C 96.165 248.255, 94.646 249, 93.794 249 C 90.527 249, 89.508 245.876, 88.937 234.102 L 88.375 222.500 88.187 233.685 M 60.750 231.732 C 63.087 231.943, 66.912 231.943, 69.250 231.732 C 71.587 231.522, 69.675 231.349, 65 231.349 C 60.325 231.349, 58.412 231.522, 60.750 231.732 M 41.083 232.927 C 39.126 234.166, 39.304 239.733, 41.368 241.798 C 42.775 243.207, 45.545 243.559, 57.442 243.842 C 70.937 244.163, 71.944 244.056, 73.908 242.092 C 75.059 240.941, 76 239.570, 76 239.045 C 76 238.520, 74.861 239.230, 73.469 240.622 C 70.972 243.119, 70.752 243.149, 57.378 242.827 C 44.528 242.517, 43.719 242.376, 41.909 240.139 C 39.513 237.176, 39.523 236.477, 42 234 C 44.066 231.934, 43.570 231.353, 41.083 232.927 M 601.200 233.200 C 600.521 233.879, 600 237.133, 600 240.700 C 600 245.014, 599.606 247.035, 598.750 247.111 C 598.063 247.172, 594.515 247.134, 590.868 247.027 C 585.115 246.857, 583.954 247.133, 582.118 249.104 C 579.297 252.132, 579.448 254.421, 582.635 256.927 C 584.750 258.591, 586.699 259, 592.518 259 C 598.926 259, 599.827 259.232, 600.290 261 C 600.611 262.230, 601.716 263.046, 603.156 263.118 C 607.233 263.325, 608.456 262.906, 610.154 260.727 C 611.613 258.854, 612.690 258.632, 619.292 258.843 C 627.925 259.118, 630 257.899, 630 252.551 C 630 247.502, 628.187 246.633, 618.977 247.264 L 611 247.811 611 242.128 C 611 235.293, 609.096 232, 605.143 232 C 603.634 232, 601.860 232.540, 601.200 233.200 M 603.019 234.478 C 602.344 235.290, 601.727 238.778, 601.646 242.228 L 601.500 248.500 593.050 248.794 C 584.262 249.099, 582 249.978, 582 253.087 C 582 255.921, 585.161 257, 593.459 257 C 600.635 257, 601.101 257.136, 602 259.500 C 603.244 262.773, 605.888 262.673, 608.618 259.250 C 610.699 256.640, 611.185 256.514, 618.170 256.782 C 626.961 257.120, 629.667 255.793, 628.628 251.656 C 627.969 249.030, 627.862 249, 619.040 249 C 612.992 249, 609.863 248.597, 609.325 247.750 C 608.889 247.063, 608.675 244.207, 608.849 241.404 C 609.080 237.679, 608.720 235.863, 607.511 234.654 C 605.473 232.616, 604.592 232.582, 603.019 234.478 M 38.183 256.217 C 36.724 257.676, 36.652 261.481, 38.035 264.066 C 40.367 268.422, 47.187 265.537, 46.900 260.316 C 46.829 259.023, 46.607 259.193, 46.128 260.905 C 45.202 264.212, 42.511 265.810, 40.250 264.394 C 38.104 263.050, 37.357 258.015, 39.141 256.913 C 39.857 256.471, 40.200 255.867, 39.904 255.571 C 39.609 255.275, 38.834 255.566, 38.183 256.217 M 581.750 270.572 C 579.755 271.654, 579 272.836, 579 274.877 C 579 280.557, 580.412 280.913, 605.577 281.564 C 628.007 282.145, 628.591 282.109, 631.265 280.006 C 634.729 277.282, 634.972 272.794, 631.777 270.557 C 628.573 268.312, 585.891 268.325, 581.750 270.572 M 584.500 270.724 C 579.831 271.871, 578.590 275.414, 581.829 278.345 C 583.419 279.784, 586.666 280, 606.757 280 C 626.745 280, 630.076 279.781, 631.482 278.375 C 632.375 277.482, 632.970 275.806, 632.803 274.650 C 632.222 270.622, 628.804 270.023, 607 270.131 C 595.725 270.186, 585.600 270.453, 584.500 270.724 M 99.557 284.223 C 97.363 287.355, 97.617 289.708, 100.455 292.545 C 103.453 295.544, 105.905 295.649, 109.365 292.927 C 112.539 290.431, 112.694 288.152, 109.927 284.635 C 107.213 281.184, 101.835 280.970, 99.557 284.223 M 101.011 285.487 C 100.306 286.336, 100.046 288.046, 100.404 289.472 C 101.639 294.395, 110 293.549, 110 288.500 C 110 284.513, 103.599 282.368, 101.011 285.487 M 615 297 C 609.016 302.984, 616.668 312.195, 623.293 306.984 C 626.906 304.142, 626.937 299.882, 623.365 297.073 C 620.052 294.466, 617.555 294.445, 615 297 M 615.452 299.433 C 612.616 303.761, 617.310 308.510, 621.962 306.020 C 625.867 303.931, 623.554 297, 618.952 297 C 617.904 297, 616.329 298.095, 615.452 299.433 M 660.455 300.455 C 658.931 301.978, 658.039 303.969, 658.102 305.705 C 658.198 308.317, 658.258 308.274, 659.017 305.049 C 659.965 301.023, 662.312 299, 666.036 299 C 669.444 299, 672 301.845, 672 305.638 C 672 309.486, 670.242 311.818, 666.499 312.934 C 663.957 313.692, 663.850 313.841, 665.795 313.914 C 669.226 314.043, 673 309.751, 673 305.720 C 673 298.842, 665.299 295.610, 660.455 300.455 M 581.223 322.557 C 576.460 325.892, 579.491 334, 585.500 334 C 588.974 334, 592 331.180, 592 327.943 C 592 322.191, 586.015 319.200, 581.223 322.557 M 533.880 324.357 C 532.439 325.635, 526.251 329.472, 520.130 332.883 C 514.008 336.295, 509 339.307, 509 339.578 C 509 340.331, 528.064 329.957, 531.740 327.205 C 538.067 322.466, 538.013 322.176, 537.882 360.219 C 537.817 379.073, 537.479 395.710, 537.132 397.189 C 535.682 403.360, 508.781 418.560, 484.134 427.134 C 467.994 432.748, 456.328 434.327, 436 433.646 C 415.024 432.944, 408.727 431.865, 391.500 426.024 C 375.423 420.573, 368.778 417.806, 350 408.740 C 326.902 397.588, 320.816 394.925, 310.599 391.499 C 305.153 389.673, 300.017 388.440, 299.185 388.759 C 298.198 389.138, 297.923 388.933, 298.395 388.170 C 298.855 387.426, 298.390 387, 297.118 387 C 293.489 387, 293.945 388.767, 297.759 389.482 C 304.944 390.828, 323.660 398.332, 344.500 408.223 C 390.980 430.282, 410.876 436, 441.151 436 C 456.368 436, 465.832 434.622, 479.898 430.358 C 493.776 426.152, 517.160 415.118, 529.704 406.857 C 538.429 401.112, 538.939 400.580, 539.498 396.648 C 539.823 394.367, 539.956 376.756, 539.794 357.513 C 539.473 319.262, 539.493 319.378, 533.880 324.357 M 582.200 324.200 C 581.540 324.860, 581 326.345, 581 327.500 C 581 328.655, 581.540 330.140, 582.200 330.800 C 585.068 333.668, 590 331.477, 590 327.335 C 590 323.786, 584.731 321.669, 582.200 324.200 M 172.709 326 C 172.274 327.375, 172.049 391.388, 172.209 468.250 L 172.500 608 166.250 608 C 162.813 608, 159.892 607.888, 159.760 607.750 C 159.628 607.612, 159.286 551.925, 159 484 L 158.480 360.500 158.490 484.995 L 158.500 609.490 166 609.150 C 170.125 608.963, 173.614 608.701, 173.753 608.568 C 173.893 608.435, 173.893 544.241, 173.753 465.913 C 173.614 387.586, 173.144 324.625, 172.709 326 M 100.404 335.495 C 98.807 336.768, 97.094 337.558, 96.596 337.250 C 96.098 336.943, 95.971 337.144, 96.313 337.698 C 96.656 338.252, 96.290 339.559, 95.500 340.603 C 93.740 342.927, 93.575 349.974, 95.197 353.533 C 96.480 356.350, 102.584 360, 106.010 360 C 107.159 360, 109.427 359.313, 111.050 358.474 C 112.672 357.635, 114 357.217, 114 357.546 C 114 358.580, 116.427 355.594, 118.271 352.291 C 119.567 349.972, 119.868 348.028, 119.394 345.060 C 119.037 342.827, 118.325 341, 117.813 341 C 117.301 341, 117.160 340.550, 117.500 340 C 117.840 339.450, 117.641 339, 117.059 339 C 116.477 339, 116.112 338.458, 116.250 337.795 C 116.387 337.133, 115.921 336.570, 115.214 336.545 C 114.506 336.520, 113.500 335.825, 112.979 335 C 112.457 334.175, 112.017 333.950, 112 334.500 C 111.983 335.071, 111.654 335.023, 111.235 334.386 C 110.788 333.709, 109.717 333.584, 108.500 334.066 C 106.651 334.799, 106.680 334.865, 108.882 334.930 C 110.254 334.970, 112.691 336.513, 114.632 338.571 C 117.435 341.543, 118 342.903, 118 346.671 C 118 350.488, 117.466 351.734, 114.600 354.600 C 111.691 357.509, 110.516 358, 106.468 358 C 102.338 358, 101.308 357.546, 98.368 354.429 C 95.596 351.490, 95 350.079, 95 346.462 C 95 342.782, 95.563 341.504, 98.458 338.608 C 100.360 336.706, 102.948 335, 104.208 334.816 C 105.996 334.555, 106.149 334.339, 104.903 333.831 C 103.949 333.442, 102.139 334.112, 100.404 335.495 M 662 339 C 666.125 343.125, 663.545 350.556, 657.737 351.278 L 654.500 351.680 657.711 351.840 C 661.769 352.042, 665 348.804, 665 344.534 C 665 341.379, 662.642 337, 660.943 337 C 660.424 337, 660.900 337.900, 662 339 M 651.035 339.934 C 649.305 343.167, 649.823 347.536, 652.181 349.595 L 654.362 351.500 652.681 349.027 C 650.767 346.213, 650.522 342.761, 652.035 339.934 C 652.605 338.870, 652.845 338, 652.570 338 C 652.295 338, 651.605 338.870, 651.035 339.934 M 36.182 342.635 C 35.457 343.419, 34.622 345.557, 34.325 347.386 C 33.865 350.217, 34.210 351.010, 36.643 352.721 C 43.848 357.792, 51.351 349.219, 45.058 343.105 C 44.150 342.222, 42.640 341.438, 41.703 341.361 C 39.257 341.162, 39.605 341.899, 42.472 342.989 C 46.115 344.374, 46.948 348.814, 44.011 351.192 C 41.661 353.095, 38.219 352.821, 36.765 350.615 C 35.443 348.608, 35.964 344.119, 37.628 343.188 C 38.524 342.687, 38.862 342.037, 38.378 341.743 C 37.895 341.450, 36.907 341.851, 36.182 342.635 M 182.200 379.660 C 182.365 398.272, 182.858 414.053, 183.295 414.728 C 183.868 415.613, 185.967 414.601, 190.795 411.113 C 204.610 401.133, 220.496 393.932, 238.480 389.496 C 245.642 387.729, 246.984 387.130, 245.105 386.533 C 243.592 386.053, 242.477 386.228, 241.987 387.021 C 241.567 387.700, 240.715 387.942, 240.093 387.558 C 238.349 386.480, 215.960 394.545, 205.384 400.061 C 200.178 402.776, 193.427 406.838, 190.381 409.088 C 187.336 411.337, 184.688 413.021, 184.497 412.830 C 184.306 412.639, 184.023 397.718, 183.869 379.673 C 183.715 361.628, 183.209 346.629, 182.744 346.342 C 182.280 346.055, 182.035 361.048, 182.200 379.660 M 581 377 C 578.445 379.555, 578.466 382.052, 581.073 385.365 C 582.415 387.072, 584.115 388, 585.898 388 C 589.161 388, 593 384.316, 593 381.186 C 593 378.072, 589.523 375, 586 375 C 584.333 375, 582.111 375.889, 581 377 M 582.960 377.831 C 581.196 379.260, 580.848 380.259, 581.379 382.374 C 582.167 385.513, 583.986 386.471, 587.487 385.593 C 591.123 384.680, 592.012 380.238, 589.040 377.831 C 587.796 376.824, 586.428 376, 586 376 C 585.572 376, 584.204 376.824, 582.960 377.831 M 90.441 382.417 C 88.684 383.701, 88.453 385.493, 88 401.371 C 87.725 411.016, 87.820 418.585, 88.212 418.192 C 88.603 417.798, 88.980 411.182, 89.049 403.488 C 89.212 385.303, 89.449 384.146, 93.349 382.449 C 95.766 381.398, 96.021 381.069, 94.441 381.039 C 93.309 381.018, 91.509 381.638, 90.441 382.417 M 257.448 384.917 C 257.760 385.421, 260.149 385.819, 262.758 385.802 C 266.193 385.780, 266.949 385.547, 265.500 384.956 C 262.731 383.827, 256.757 383.798, 257.448 384.917 M 268 385.273 C 268 385.730, 270.681 386.008, 273.959 385.890 C 277.236 385.772, 279.688 385.304, 279.407 384.850 C 278.746 383.780, 268 384.179, 268 385.273 M 99.465 402.500 L 99.500 419.500 106 419.584 L 112.500 419.669 106.273 419.287 L 100.047 418.906 99.738 402.203 L 99.429 385.500 99.465 402.500 M 248 386 C 248.825 386.533, 250.850 386.945, 252.500 386.914 C 255.076 386.867, 255.217 386.738, 253.500 386 C 252.400 385.527, 250.375 385.116, 249 385.086 C 247.030 385.042, 246.818 385.236, 248 386 M 289.500 387 C 287.714 387.767, 287.788 387.867, 290.191 387.930 C 291.671 387.968, 293.160 387.550, 293.500 387 C 294.238 385.806, 292.278 385.806, 289.500 387 M 147.754 497.574 C 147.516 600.739, 147.394 607.493, 145.774 607.805 C 144.570 608.037, 142.719 606.077, 139.649 601.319 C 131.004 587.918, 123.626 571.342, 116.862 550.124 L 114.830 543.749 118.900 539.602 C 124.540 533.855, 128.092 524.698, 128.740 514.230 C 129.193 506.926, 128.928 505.069, 126.475 498.341 C 123.535 490.283, 118.962 484, 116.034 484 C 111.006 484, 100.647 497.206, 97.992 507 C 97.321 509.475, 96.584 512.137, 96.354 512.915 C 96.049 513.946, 95.062 513.494, 92.718 511.252 C 85.843 504.675, 74.622 497.949, 66.275 495.403 C 55.095 491.993, 44.928 491.162, 41.541 493.381 C 35.412 497.397, 39.701 507.687, 54.250 523.875 C 66.713 537.742, 84.112 546.902, 98.129 546.976 C 102.430 546.998, 102.842 547.230, 103.956 550.250 C 104.616 552.038, 106.041 555.467, 107.123 557.871 C 108.206 560.275, 108.915 562.418, 108.699 562.634 C 108.484 562.850, 106.550 562.284, 104.404 561.376 C 99.783 559.423, 79.345 558.294, 74 559.697 C 70.876 560.517, 70.466 561.018, 70.186 564.361 C 69.729 569.831, 73.138 575.964, 80.425 582.781 C 92.320 593.908, 103.894 598.287, 115.675 596.116 C 121.623 595.020, 122.342 595.073, 123.630 596.705 C 125.626 599.237, 129 605.711, 129 607.011 C 129 607.776, 121.865 608.011, 105.079 607.801 C 81.329 607.502, 81.139 607.483, 78.579 605.076 C 77.160 603.742, 76 601.800, 76 600.760 C 76 595.256, 70.180 592.934, 66.520 596.978 C 61.857 602.130, 67.917 612.447, 78.393 617.188 L 83.500 619.500 342.500 619.500 L 601.500 619.500 606.186 617.192 C 613.086 613.793, 618 607.953, 618 603.152 C 618 594.991, 610.947 593.485, 607.394 600.888 C 604.087 607.779, 603.372 607.954, 579 607.854 L 557.500 607.765 564.500 604.325 C 577.892 597.743, 586.124 592.458, 593.823 585.500 C 605.424 575.015, 610.975 568.155, 610.988 564.285 C 611.011 558.011, 602.827 557.349, 599.082 563.321 C 597.019 566.612, 590.211 573.599, 583.838 578.968 C 576.279 585.335, 558 596.259, 558 594.409 C 558 594.140, 558.892 592.171, 559.983 590.033 C 563.669 582.808, 568.576 561.407, 569.564 548.250 C 570.142 540.544, 570.537 539, 571.932 539 C 575.033 539, 590.061 531.058, 595.091 526.761 C 600.751 521.926, 609.236 509.417, 610.885 503.476 C 612.494 497.679, 612.262 495.262, 609.866 492.866 C 607.950 490.950, 606.952 490.786, 600.066 491.258 C 594.588 491.634, 590.302 492.676, 585.051 494.910 C 581.010 496.630, 577.506 497.839, 577.264 497.598 C 577.023 497.356, 577.339 494.682, 577.968 491.655 L 579.110 486.151 584.578 484.432 C 599.368 479.780, 613.334 466.198, 622.066 447.977 L 626.367 439 638.934 438.797 L 651.500 438.595 639 438.047 C 632.125 437.746, 626.050 437.638, 625.500 437.806 C 624.950 437.974, 622.159 442.924, 619.297 448.806 C 610.981 465.898, 599.606 476.942, 585 482.103 L 577.500 484.753 576.346 489.627 C 575.106 494.862, 574.649 502, 575.553 502 C 575.857 502, 577.770 500.863, 579.803 499.474 C 587.657 494.107, 604.107 491.164, 608.461 494.348 C 613.194 497.809, 605.152 515.054, 593.861 525.656 C 589.458 529.791, 578.325 535.600, 573.118 536.480 C 568.329 537.289, 568.585 536.588, 567.065 553.064 C 565.816 566.609, 563.188 577.455, 558.523 588.313 C 554.513 597.645, 555.305 598.680, 563.289 594.544 C 574.594 588.686, 584.993 580.793, 594.294 571.011 C 603.700 561.119, 607.291 558.989, 608.639 562.502 C 609.861 565.686, 607.679 569.177, 598.750 578.319 C 588.717 588.592, 581.121 593.936, 565.250 601.885 C 555.897 606.569, 552.951 608.915, 556.250 609.052 C 556.938 609.080, 567.625 609.058, 580 609.002 C 605.259 608.887, 605.927 608.723, 608.632 601.962 C 609.831 598.965, 610.774 598, 612.502 598 C 615.050 598, 616 599.687, 616 604.214 C 616 606.439, 614.993 608.214, 612.275 610.777 C 604.824 617.805, 625.700 617.211, 370 617.661 C 242.675 617.885, 125.179 617.711, 108.898 617.273 L 79.297 616.478 74.982 613.489 C 69.770 609.878, 67.009 605.631, 67.004 601.218 C 67.001 598.731, 67.546 597.729, 69.250 597.083 C 71.944 596.062, 74 597.421, 74 600.222 C 74 601.310, 75.530 603.730, 77.400 605.600 L 80.800 609 106.400 609 C 126.216 609, 131.999 608.718, 131.996 607.750 C 131.993 607.063, 130.615 604.475, 128.934 602 C 127.252 599.525, 125.446 596.438, 124.920 595.139 C 124.028 592.934, 123.652 592.835, 119.233 593.639 C 112.381 594.886, 103.938 594.472, 98.359 592.618 C 84.382 587.972, 66.429 567.038, 72.267 562.194 C 72.964 561.615, 77.357 560.832, 82.031 560.453 C 91.328 559.698, 99.545 561.197, 107.018 565.009 C 112.593 567.854, 112.752 566.434, 108.133 555 L 104.296 545.500 96.898 544.873 C 86.670 544.007, 82.668 542.735, 74 537.597 C 61.076 529.937, 48.635 517.106, 42.620 505.237 C 38.136 496.387, 39.310 494, 48.151 494 C 63.106 494, 79.188 501.180, 92.884 513.972 C 94.745 515.710, 96.614 516.765, 97.037 516.316 C 97.460 515.867, 98.532 512.621, 99.420 509.103 C 102.257 497.859, 111.408 485.481, 116.354 486.199 C 118.927 486.572, 122.257 491.410, 125.057 498.843 C 126.833 503.559, 127.120 506.080, 126.784 514 C 126.307 525.211, 123.325 532.675, 116.659 539.341 L 112.593 543.407 117.384 557.454 C 125.477 581.183, 140.987 610.063, 145.595 609.985 C 149.406 609.920, 149.319 612.598, 149.202 498.472 C 149.140 438.128, 148.846 388.512, 148.549 388.215 C 148.252 387.918, 147.894 437.130, 147.754 497.574 M 616.200 394.200 C 615.540 394.860, 615 397.245, 615 399.500 C 615 401.755, 615.540 404.140, 616.200 404.800 C 616.860 405.460, 619.245 406, 621.500 406 C 623.755 406, 626.140 405.460, 626.800 404.800 C 628.668 402.932, 628.272 396.557, 626.171 394.655 C 624.046 392.732, 617.947 392.453, 616.200 394.200 M 618.223 395.557 C 614.057 398.474, 616.322 405, 621.500 405 C 626.553 405, 628.638 399.638, 625 396 C 622.593 393.593, 621.160 393.499, 618.223 395.557 M 227.228 418.211 C 222.750 420.407, 223.052 428.473, 227.656 429.628 C 234.373 431.314, 239.197 425.429, 235.343 420.248 C 233.056 417.173, 230.601 416.557, 227.228 418.211 M 608.964 421.750 C 599.222 426.786, 587.842 436.283, 583.891 442.676 L 581.672 446.268 579.341 441.681 C 576.350 435.796, 569.892 429, 567.290 429 C 563.854 429, 560.024 432.945, 556.740 439.867 C 554.101 445.428, 553.526 447.977, 553.182 455.638 C 552.930 461.234, 553.246 466.274, 553.995 468.638 C 555.544 473.522, 562.623 484.642, 564.689 485.434 C 565.932 485.911, 566.123 487.002, 565.626 490.767 C 564.456 499.612, 563.864 503.498, 563.514 504.618 C 563.321 505.233, 560.055 502.695, 556.256 498.977 C 549.176 492.050, 545.373 489.665, 536.331 486.483 C 531.379 484.740, 531.050 484.738, 528.459 486.435 L 525.756 488.206 526.200 499.353 C 526.706 512.059, 528.145 516.286, 534.829 524.693 C 539.206 530.200, 550.334 537.517, 556.080 538.666 L 559.259 539.302 558.617 546.401 C 556.556 569.173, 547.085 595.058, 537.623 603.780 L 533.045 608 515.522 608 L 498 608 498 603.519 C 498 599.461, 498.260 598.974, 500.750 598.361 C 511.003 595.838, 519.539 588.852, 524.567 578.867 C 530.885 566.321, 533.112 551.222, 529.171 547.655 C 524.980 543.862, 513.820 547.572, 503.329 556.244 L 498.500 560.237 498.234 544.868 C 498.010 531.858, 497.712 529.308, 496.293 528.250 C 494.087 526.604, 489.532 526.653, 488.134 528.338 C 487.373 529.256, 486.942 541.896, 486.762 568.588 L 486.500 607.500 459.750 607.766 L 433 608.033 433 592.666 L 433 577.300 438.750 572.271 C 455.099 557.971, 457.417 554.497, 453.171 550.655 C 450.081 547.859, 447.464 548.762, 440.581 555 C 436.939 558.300, 433.744 561, 433.480 561 C 433.216 561, 433.006 552.563, 433.014 542.250 L 433.029 523.500 437.936 520.794 C 443.614 517.663, 449 510.570, 449 506.225 C 449 502.687, 446.277 500, 442.692 500 C 440.637 500, 439.608 500.843, 438.118 503.750 C 434.203 511.384, 428.137 514.338, 421.807 511.693 C 416.593 509.514, 413 504.643, 413 499.752 C 413 496.202, 413.601 495.081, 417.518 491.329 C 423.219 485.866, 427.468 485.518, 433.428 490.028 C 437.798 493.334, 441.065 493.792, 443.429 491.429 C 447.017 487.841, 443.925 482.636, 435.800 478.588 C 428.753 475.076, 422.434 475.126, 415.244 478.750 C 406.300 483.258, 401.645 490.386, 401.633 499.592 C 401.621 508.968, 407.094 517.046, 417.008 522.283 L 421.500 524.656 421.792 535.078 C 422.244 551.266, 422.295 551.209, 413.883 543.968 C 408.069 538.964, 406.275 537.941, 403.759 538.193 C 400.137 538.557, 398.471 540.770, 399.317 544.095 C 399.669 545.478, 404.614 550.537, 410.954 556 L 421.978 565.500 421.989 571.300 L 422 577.100 413.560 570.050 C 405.165 563.038, 401.752 561.648, 399.200 564.200 C 398.540 564.860, 398 566.608, 398 568.085 C 398 570.985, 405.850 579.047, 416.510 587.095 L 422 591.240 422 599.152 C 422 604.560, 421.604 607.215, 420.749 607.543 C 420.062 607.807, 400.851 607.905, 378.060 607.761 L 336.622 607.500 346.234 599.690 C 356.059 591.707, 358.403 588.321, 356.906 584.275 C 355.540 580.582, 351.725 580.403, 346.814 583.801 C 344.441 585.444, 341.409 587.960, 340.076 589.394 C 338.742 590.827, 337.280 592, 336.826 592 C 336.372 592, 336.010 589.413, 336.023 586.250 C 336.044 580.752, 336.226 580.347, 340.181 577 C 356.772 562.961, 357 562.717, 357 559.009 C 357 552.226, 350.984 552.222, 343.500 559 C 340.463 561.750, 337.534 564, 336.989 564 C 335.918 564, 335.854 559.148, 336.868 554.779 C 337.277 553.019, 340.893 549.073, 347.115 543.599 C 357.013 534.890, 358.288 533.012, 356.883 529.213 C 356.280 527.581, 355.250 527, 352.966 527 C 348.919 527, 346.417 528.351, 341.250 533.325 L 337 537.416 337 530.745 L 337 524.074 346.391 516.041 C 355.696 508.083, 357 506.488, 357 503.073 C 357 500.744, 353.878 498, 351.228 498 C 350.052 498, 346.478 500.441, 343.173 503.500 C 339.906 506.525, 336.955 509, 336.616 509 C 336.277 509, 336 502.335, 336 494.189 C 336 480.665, 335.823 479.187, 333.961 477.189 C 331.670 474.730, 330.715 474.547, 327.934 476.035 C 326.162 476.984, 325.999 478.263, 325.986 491.285 C 325.967 511.538, 326.167 511.194, 318.384 504.360 C 311.856 498.630, 308.515 497.498, 305.503 499.997 C 304.676 500.684, 304 502.452, 304 503.928 C 304 506.072, 305.857 508.212, 313.223 514.556 C 326.991 526.414, 326.302 525.503, 325.761 531.138 C 325.501 533.836, 325.004 536.329, 324.656 536.678 C 324.307 537.026, 321.591 535.012, 318.620 532.202 C 315.649 529.392, 312.076 526.806, 310.681 526.456 C 304.893 525.003, 301.714 528.653, 304.371 533.700 C 305.609 536.053, 316.050 545.660, 322.470 550.354 C 323.513 551.117, 324.595 553.730, 325.050 556.584 C 325.843 561.552, 325.256 566.992, 324.118 565.239 C 323.778 564.716, 320.842 561.973, 317.594 559.144 C 309.417 552.021, 304 552.220, 304 559.643 C 304 561.822, 304.701 563.378, 306.136 564.383 C 308.654 566.147, 315.569 571.934, 321.661 577.377 C 325.642 580.935, 326 581.652, 326 586.068 C 326 588.716, 325.651 591.098, 325.224 591.362 C 324.797 591.625, 322.048 589.848, 319.115 587.412 C 313.066 582.389, 309.922 581.259, 306.426 582.852 C 303.509 584.181, 303.191 587.879, 305.750 590.723 C 308.079 593.313, 318.798 602.237, 322.241 604.454 C 323.749 605.424, 324.735 606.620, 324.432 607.109 C 324.124 607.608, 305.758 607.979, 282.691 607.953 L 241.500 607.906 244.950 605.203 C 260.160 593.287, 263.699 588.934, 261.296 585.095 C 260.747 584.218, 258.729 583.365, 256.813 583.199 C 253.878 582.946, 252.531 583.616, 248.267 587.449 C 245.484 589.952, 242.935 592, 242.603 592 C 242.271 592, 242 588.655, 242 584.567 L 242 577.134 246.700 573.317 C 256.255 565.557, 262 559.375, 262 556.851 C 262 550.811, 255.884 550.276, 249.728 555.778 C 241.467 563.161, 242 563.268, 242 554.229 L 242 546.214 250.980 538.357 C 260.810 529.755, 262.959 526.400, 261.161 522.455 C 259.235 518.226, 254.808 519.123, 248.594 525 C 245.686 527.750, 243.013 530, 242.653 530 C 242.294 530, 242 526.885, 242 523.078 L 242 516.155 245.388 515.037 C 252.812 512.587, 262 502.604, 262 496.988 C 262 496.229, 260.840 497.936, 259.421 500.782 C 256.638 506.368, 251.131 511.385, 245.822 513.172 C 240.277 515.038, 240 515.583, 240 524.622 C 240 534.295, 240.756 534.910, 246 529.500 C 247.866 527.575, 251.125 524.800, 253.242 523.332 C 256.755 520.898, 257.231 520.803, 258.676 522.247 C 261.504 525.076, 259.420 528.471, 249.515 537.168 L 240.027 545.500 240.014 555.250 C 239.998 566.728, 240.525 567.115, 247.042 560.420 C 253.816 553.460, 258.846 551.549, 260.315 555.378 C 261.137 557.519, 258.734 560.472, 249.250 568.975 L 240 577.269 240 586.134 C 240 591.551, 240.401 595, 241.030 595 C 241.597 595, 244.978 592.525, 248.544 589.500 C 255.222 583.834, 255.738 583.579, 258.418 584.607 C 262.727 586.260, 257.842 593.123, 246 602.054 C 240.620 606.112, 239.842 607.105, 240.975 608.466 C 241.542 609.148, 256.096 609.500, 283.668 609.500 L 325.500 609.500 325.807 607.344 C 326.025 605.813, 325.012 604.372, 322.307 602.367 C 314.163 596.332, 306 588.678, 306 587.078 C 306 585.090, 307.883 583, 309.674 583 C 310.375 583, 314.086 585.700, 317.920 589 C 321.754 592.300, 325.366 595, 325.946 595 C 327.476 595, 327.304 580.760, 325.750 578.829 C 325.063 577.974, 320.338 573.805, 315.250 569.564 C 308.184 563.673, 306 561.272, 306 559.395 C 306 556.474, 308.282 555.342, 311.314 556.758 C 312.516 557.320, 316.253 560.289, 319.618 563.355 C 322.984 566.421, 326.021 568.646, 326.368 568.298 C 326.716 567.951, 327 564.262, 327 560.102 L 327 552.537 320.281 546.518 C 307.749 535.293, 304.824 532.153, 305.175 530.299 C 305.397 529.129, 306.563 528.400, 308.508 528.216 C 310.998 527.979, 312.669 529.031, 318.470 534.488 C 325.142 540.766, 325.476 540.948, 326.300 538.773 C 326.774 537.523, 326.996 533.421, 326.793 529.658 C 326.505 524.321, 326.023 522.592, 324.597 521.794 C 323.592 521.232, 318.996 517.415, 314.385 513.312 C 305.909 505.771, 304.375 502.940, 307.776 501.120 C 310.072 499.891, 311.967 500.959, 319.471 507.715 C 324.622 512.353, 325.539 512.845, 326.151 511.296 C 326.540 510.308, 326.891 502.693, 326.930 494.372 C 326.988 481.849, 327.273 479.019, 328.584 477.930 C 329.731 476.978, 330.627 476.905, 331.834 477.664 C 333.239 478.547, 333.578 481.224, 334 494.775 C 334.275 503.610, 334.819 511.156, 335.208 511.544 C 335.598 511.932, 339.111 509.494, 343.015 506.125 C 350.345 499.801, 351.756 499.156, 353.800 501.200 C 356.320 503.720, 354.721 506.171, 345 514.698 L 335 523.468 335 531.734 C 335 536.714, 335.408 540, 336.025 540 C 336.589 540, 339.953 537.300, 343.500 534 C 350.038 527.917, 352.783 526.828, 354.960 529.452 C 357.039 531.957, 355.252 534.457, 344.978 543.421 L 335 552.126 335 560.063 C 335 564.428, 335.280 568, 335.623 568 C 335.965 568, 339.159 565.274, 342.720 561.943 C 347.796 557.195, 349.768 555.952, 351.848 556.193 C 353.871 556.427, 354.572 557.125, 354.805 559.133 C 355.058 561.318, 353.866 562.849, 347.796 568.133 C 343.773 571.635, 339.321 575.408, 337.901 576.518 C 335.771 578.183, 335.221 579.627, 334.754 584.772 C 334.188 591.015, 334.639 595, 335.911 595 C 336.285 595, 338.956 592.813, 341.848 590.141 C 348.641 583.862, 351.598 582.259, 353.815 583.648 C 358.302 586.460, 354.562 591.568, 340.250 602.173 C 335.668 605.568, 333.460 608.934, 335.750 609.032 C 343.468 609.362, 401.800 609.543, 410.750 609.264 L 423 608.882 423 599.508 L 423 590.134 418.250 586.334 C 409.040 578.967, 400.875 571.636, 399.947 569.900 C 398.582 567.350, 399.851 565, 402.594 565 C 404.141 565, 407.948 567.646, 413.477 572.565 C 418.153 576.726, 422.434 579.850, 422.990 579.506 C 423.545 579.163, 424 575.742, 424 571.905 C 424 565.932, 423.676 564.640, 421.750 562.919 C 420.512 561.814, 415.337 557.270, 410.250 552.821 C 403.470 546.891, 401 544.099, 401 542.366 C 401 540.435, 401.521 540, 403.830 540 C 405.875 540, 408.715 541.782, 414.059 546.418 C 418.128 549.948, 421.804 552.621, 422.229 552.359 C 422.653 552.097, 423 545.439, 423 537.563 C 423 521.928, 423.056 522.084, 416.755 520.054 C 412.025 518.531, 406.326 511.733, 404.393 505.310 C 401.470 495.597, 406.429 484.883, 416.142 479.928 C 423.789 476.026, 434.958 478.010, 440.841 484.313 C 445.887 489.722, 441.004 492.979, 434.484 488.553 C 427.739 483.976, 417.817 485.771, 413.509 492.346 C 408.031 500.706, 413.584 512.212, 424.223 514.549 C 428.694 515.531, 435.528 511.662, 438.609 506.404 C 440.029 503.982, 441.785 502, 442.513 502 C 445.769 502, 447 503.303, 447 506.750 C 447 509.655, 446.152 511.108, 442.250 514.893 C 439.637 517.427, 436.038 520.267, 434.250 521.203 L 431 522.907 431 543.453 C 431 558.043, 431.327 564, 432.128 564 C 432.749 564, 436.357 561.075, 440.147 557.500 C 447.553 550.514, 451.031 549.321, 453.041 553.076 C 454.232 555.302, 453.291 556.390, 437.250 571.323 L 431 577.142 431 592.512 C 431 601.102, 431.418 608.140, 431.947 608.467 C 433.168 609.222, 477.010 609.860, 483.250 609.214 L 488 608.721 488.138 589.111 C 488.214 578.325, 488.551 560.280, 488.888 549.012 C 489.445 530.361, 489.661 528.492, 491.298 528.179 C 495.469 527.381, 496 529.397, 496 546.039 C 496 557.780, 496.321 561.943, 497.250 562.260 C 497.938 562.494, 500.750 560.713, 503.500 558.302 C 510.475 552.184, 519.670 547.777, 524.611 548.181 L 528.500 548.500 528.805 553.827 C 529.761 570.525, 519.557 588.479, 505.734 594.421 C 496.426 598.422, 496.527 598.331, 496.189 602.926 C 495.684 609.784, 496.213 610, 513.497 610 C 521.886 610, 530.253 609.699, 532.091 609.332 C 537.952 608.160, 543.900 600.962, 549.721 588 C 554.933 576.394, 557.485 566.489, 559.981 548.173 C 561.271 538.714, 560.835 537.567, 555.584 536.582 C 551.665 535.846, 540.944 529.151, 537.407 525.229 C 531.316 518.476, 527.032 506.597, 527.012 496.405 C 527.003 491.760, 527.435 489.916, 528.829 488.655 C 531.380 486.346, 532.572 486.528, 540.827 490.484 C 549.150 494.473, 557.952 501.639, 560.625 506.602 C 563.277 511.527, 564.672 510.845, 565.436 504.250 C 565.803 501.087, 566.577 495.973, 567.155 492.884 L 568.208 487.268 563.061 480.884 C 556.411 472.636, 554.625 466.734, 555.191 454.887 C 555.554 447.294, 556.088 445.144, 559.056 439.313 C 563.615 430.359, 566.472 429.127, 571.462 433.963 C 573.363 435.806, 576.175 439.717, 577.710 442.655 C 579.244 445.592, 580.831 447.996, 581.235 447.998 C 581.639 447.999, 583.655 445.863, 585.716 443.250 C 595.776 430.495, 613.984 418.579, 622.460 419.203 C 626.452 419.496, 626.506 419.554, 627 424 L 627.500 428.500 652 429.045 C 665.475 429.344, 676.597 429.682, 676.715 429.795 C 676.833 429.908, 677.394 430.867, 677.961 431.928 C 679.281 434.394, 678.302 436.933, 675.611 438.020 C 674.009 438.668, 673.905 438.889, 675.179 438.937 C 677.338 439.018, 680 436.357, 680 434.117 C 680 433.160, 679.082 431.392, 677.961 430.189 C 676.069 428.157, 675.002 428, 663.117 428 C 656.074 428, 645.516 427.707, 639.656 427.348 L 629 426.696 629 423.782 C 629 415.226, 622.803 414.597, 608.964 421.750 M 62.890 421.250 C 61.752 423.419, 61.779 423.438, 63.642 421.787 C 65.143 420.457, 67.911 420.002, 76.037 419.748 L 86.500 419.422 75.285 419.211 C 64.567 419.009, 64.018 419.100, 62.890 421.250 M 227.750 420.080 C 224.306 422.086, 225.917 428, 229.907 428 C 234.667 428, 236.658 423.801, 233.429 420.571 C 231.621 418.764, 230.219 418.642, 227.750 420.080 M 61.063 425.250 C 61.029 426.212, 61.900 427.900, 63 429 C 64.768 430.768, 66.333 431, 76.500 431 L 88 431 88 439.929 C 88 449.902, 89.045 452, 94.015 452 C 98.257 452, 100.032 448.814, 99.848 441.527 L 99.695 435.500 99.098 441.599 C 98.472 447.982, 96.868 451.010, 94.128 450.985 C 90.430 450.950, 89.688 449.308, 89.090 439.842 L 88.500 430.500 77.061 430.215 C 65.351 429.924, 63.498 429.350, 61.952 425.535 C 61.262 423.834, 61.116 423.787, 61.063 425.250 M 608 433.365 C 600.739 438.175, 590.419 448.722, 586.602 455.236 C 584.231 459.281, 581.142 473.475, 582.366 474.699 C 583.106 475.439, 591.526 470.460, 596.843 466.138 C 605.714 458.926, 616.557 441.246, 617.232 432.893 C 617.613 428.183, 615.674 428.282, 608 433.365 M 98.374 431.467 C 98.065 432.274, 98.043 433.511, 98.327 434.217 C 98.610 434.923, 98.878 434.503, 98.921 433.284 C 98.997 431.159, 99.442 431.054, 109.750 430.746 L 120.500 430.425 109.719 430.212 C 101.026 430.041, 98.828 430.284, 98.374 431.467 M 609.500 434.535 C 602.938 438.748, 591.708 449.936, 588.433 455.525 C 586.173 459.380, 583.528 470.734, 584.614 471.915 C 585.077 472.417, 598.994 462.918, 599.014 462.087 C 599.022 461.764, 600.855 459.475, 603.088 457 C 608.104 451.441, 615.289 437.263, 614.832 433.827 L 614.500 431.326 609.500 434.535 M 35 440.264 C 31.932 441.838, 31.213 446.150, 33.450 449.565 C 35.538 452.750, 42.354 453.075, 43.965 450.066 C 45.388 447.406, 45.265 442.465, 43.744 441.203 C 41.534 439.368, 37.574 438.943, 35 440.264 M 665.250 439.716 C 666.763 439.945, 669.237 439.945, 670.750 439.716 C 672.263 439.487, 671.025 439.300, 668 439.300 C 664.975 439.300, 663.737 439.487, 665.250 439.716 M 35.200 442.200 C 33.657 443.743, 33.657 447.257, 35.200 448.800 C 37.386 450.986, 41.930 450.249, 43.180 447.504 C 44.120 445.442, 44.002 444.660, 42.504 443.004 C 40.474 440.761, 37.019 440.381, 35.200 442.200 M 564.297 444.662 C 563.185 447.212, 562.605 451.352, 562.568 457 C 562.521 464.407, 562.869 466.175, 565.274 470.750 C 566.792 473.637, 568.712 476, 569.542 476 C 572.705 476, 575.425 463.523, 573.956 455.750 C 572.830 449.792, 569.127 441.780, 567.236 441.207 C 566.531 440.993, 565.231 442.523, 564.297 444.662 M 564.928 448.250 C 563.193 454.663, 564.217 465.998, 566.927 470.382 C 568.161 472.379, 569.518 473.798, 569.943 473.536 C 570.367 473.273, 571.298 470.310, 572.011 466.950 C 572.992 462.327, 573.042 459.705, 572.218 456.171 C 570.788 450.033, 568.214 444, 567.025 444 C 566.504 444, 565.560 445.913, 564.928 448.250 M 282.655 450.829 C 280.458 453.256, 280.550 458.283, 282.829 460.345 C 285.057 462.361, 288.957 462.483, 291.509 460.617 C 293.746 458.981, 294.085 453.012, 292.078 450.593 C 290.276 448.423, 284.706 448.562, 282.655 450.829 M 284.250 451.662 C 282.657 452.305, 282.622 457.222, 284.200 458.800 C 284.860 459.460, 286.345 460, 287.500 460 C 288.655 460, 290.140 459.460, 290.800 458.800 C 291.460 458.140, 292 456.655, 292 455.500 C 292 451.779, 288.391 449.991, 284.250 451.662 M 497 465.288 C 495.264 466.161, 494.405 467.518, 494.190 469.727 C 493.721 474.543, 495.474 477, 499.380 477 C 503.233 477, 506.007 474.446, 505.985 470.921 C 505.966 467.940, 505.136 466.634, 502.316 465.150 C 499.677 463.761, 500.054 463.751, 497 465.288 M 218.320 468.750 C 216.154 470.813, 215.534 471.557, 216.941 470.403 C 218.348 469.250, 220.613 467.563, 221.973 466.653 C 223.332 465.744, 223.953 465, 223.351 465 C 222.749 465, 220.485 466.688, 218.320 468.750 M 252.901 469.585 C 255.872 472.265, 259.125 476.267, 260.129 478.479 C 261.134 480.690, 261.966 481.915, 261.978 481.200 C 262.044 477.274, 255.626 468.923, 250.500 466.267 C 248.339 465.147, 249.010 466.075, 252.901 469.585 M 69.169 467.338 C 64.916 469.236, 65.060 476.624, 69.396 478.944 C 72.687 480.705, 76.797 479.540, 78.207 476.446 C 79.111 474.461, 79.017 473.260, 77.752 470.605 C 76.004 466.940, 72.797 465.719, 69.169 467.338 M 496.835 467.933 C 494.845 469.544, 494.716 470.081, 495.765 472.383 C 497.914 477.100, 504.592 475.055, 503.827 469.914 C 503.350 466.713, 499.640 465.661, 496.835 467.933 M 68.667 469.667 C 67.455 470.878, 67.974 475.734, 69.445 476.954 C 71.463 478.629, 75.015 477.887, 76.622 475.454 C 77.772 473.713, 77.743 473.078, 76.430 471.204 C 74.943 469.081, 70.193 468.140, 68.667 469.667 M 230 473.121 C 225.326 474.979, 219 482.447, 219 486.108 C 219 486.771, 220.046 485.331, 221.324 482.907 C 225.345 475.284, 232.849 471.805, 240.707 473.921 C 245.721 475.271, 249.404 478.872, 251.570 484.544 C 253.712 490.152, 252.851 494.961, 248.901 499.460 C 243.206 505.946, 232.474 506.857, 225.675 501.432 C 222.097 498.577, 220.762 496.230, 219.533 490.632 C 219.186 489.055, 218.724 487.942, 218.507 488.160 C 217.680 488.987, 219.948 496.455, 221.776 498.923 C 225.315 503.703, 229.827 506, 235.680 506 C 242.712 506, 247.072 504.084, 250.618 499.434 C 256.628 491.555, 253.313 478.751, 244.039 474.020 C 239.814 471.865, 234.083 471.498, 230 473.121 M 211.477 476.394 C 210.615 477.711, 209.712 480.524, 209.472 482.644 C 209.085 486.054, 209.129 486.153, 209.850 483.500 C 210.299 481.850, 211.427 479.038, 212.358 477.250 C 214.331 473.464, 213.760 472.910, 211.477 476.394 M 262.204 489 C 262.204 494.922, 262.297 495.211, 263.247 492.250 C 263.970 489.995, 263.970 488.005, 263.247 485.750 C 262.297 482.789, 262.204 483.078, 262.204 489 M 626.280 491.020 C 622.562 492.516, 621.558 499.749, 624.601 503.112 C 628.676 507.614, 636.400 503.940, 636.400 497.500 C 636.400 491.615, 631.924 488.749, 626.280 491.020 M 625.655 493.829 C 622.364 497.466, 624.753 504, 629.374 504 C 632.282 504, 636.222 499.296, 635.461 496.733 C 634.072 492.054, 628.701 490.463, 625.655 493.829 M 110.049 502.903 C 104.868 513.166, 104.078 527.622, 108.376 533.500 C 109.546 535.099, 109.814 535.055, 112.225 532.860 C 115.631 529.758, 119.071 520.054, 119.239 513.073 C 119.393 506.631, 116.514 497, 114.434 497 C 113.661 497, 111.688 499.656, 110.049 502.903 M 535 500.489 C 535 505.326, 538.099 513.005, 542.436 518.913 C 545.050 522.473, 547.817 524.752, 552.168 526.926 C 555.512 528.597, 558.643 529.721, 559.124 529.423 C 560.798 528.389, 559.966 521.469, 557.542 516.263 C 554.476 509.677, 547.092 501.707, 541.587 499.042 C 535.806 496.244, 535 496.421, 535 500.489 M 537 500.868 C 537 504.465, 541.001 514.213, 544.064 518.081 C 547.632 522.586, 555.310 527.479, 557.495 526.640 C 562.981 524.535, 548.849 503.555, 539.569 500.026 C 537.394 499.199, 537 499.328, 537 500.868 M 111.148 504.713 C 107.948 511.050, 106.754 520.021, 108.150 527.250 C 108.761 530.413, 109.677 533, 110.187 533 C 110.697 533, 112.663 529.600, 114.557 525.445 C 116.992 520.101, 118 516.448, 118 512.965 C 118 508.293, 115.517 499.969, 114.141 500.027 C 113.789 500.043, 112.442 502.151, 111.148 504.713 M 591.423 503.363 C 584.145 506.070, 579.443 508.874, 575.803 512.680 C 570.908 517.799, 568.290 527.130, 571.413 528.328 C 573.952 529.302, 586.282 522.455, 591.156 517.363 C 595.579 512.744, 602 503.531, 602 501.804 C 602 500.398, 597.692 501.033, 591.423 503.363 M 50.516 502.973 C 49.443 504.710, 52.524 508.744, 62.394 518.522 C 72.511 528.545, 81.908 534.245, 91.487 536.169 C 99.635 537.805, 100.368 536.545, 95.496 529.270 C 89.715 520.636, 84.262 515.291, 76.709 510.854 C 66.277 504.725, 52.075 500.452, 50.516 502.973 M 589.412 506.136 C 580.117 510.026, 573.093 516.888, 572.292 522.862 C 571.950 525.406, 572.136 527, 572.772 527 C 574.145 527, 585.994 520.292, 588.369 518.170 C 590.440 516.319, 599 504.606, 599 503.623 C 599 502.499, 596.602 503.127, 589.412 506.136 M 53 504.948 C 53 506.852, 62.962 517.798, 69.247 522.799 C 76.966 528.941, 89.150 535, 93.782 535 L 97.120 535 91.926 527.487 C 84.952 517.400, 75.028 510.281, 62.085 506.081 C 54.992 503.780, 53 503.532, 53 504.948 M 488 511 C 484.125 514.875, 486.639 522, 491.882 522 C 495.129 522, 499 518.334, 499 515.258 C 499 512.834, 494.629 509, 491.865 509 C 490.839 509, 489.100 509.900, 488 511 M 489.200 512.200 C 488.540 512.860, 488 514.345, 488 515.500 C 488 520.215, 494.205 521.839, 496.124 517.626 C 498.265 512.929, 492.774 508.626, 489.200 512.200 M 642.315 515.985 C 637.327 518.044, 636.305 526.522, 640.635 529.927 C 644.130 532.677, 647.546 532.545, 650.545 529.545 C 656.783 523.308, 650.331 512.677, 642.315 515.985 M 641.223 518.557 C 638.551 520.428, 638.181 526.038, 640.571 528.429 C 642.721 530.578, 648.300 530.431, 650.345 528.171 C 652.772 525.490, 652.474 520.446, 649.777 518.557 C 648.555 517.701, 646.630 517, 645.500 517 C 644.370 517, 642.445 517.701, 641.223 518.557 M 589 554 C 586.593 556.407, 586.499 557.840, 588.557 560.777 C 590.272 563.226, 594.811 563.789, 596.800 561.800 C 597.460 561.140, 598 559.205, 598 557.500 C 598 555.795, 597.460 553.860, 596.800 553.200 C 594.979 551.379, 591.237 551.763, 589 554 M 590.750 554.080 C 588.592 555.337, 588.466 559.312, 590.530 561.025 C 592.790 562.901, 597 560.752, 597 557.721 C 597 553.666, 594.231 552.053, 590.750 554.080 M 514.450 560.407 C 510.547 562.107, 499.327 572.468, 497.442 576.111 C 495.786 579.315, 495.504 587.576, 497.020 588.512 C 498.984 589.726, 505.431 586.677, 510.065 582.343 C 514.894 577.826, 519.277 569.624, 520.536 562.750 C 521.130 559.507, 520.971 559.005, 519.361 559.039 C 518.338 559.061, 516.127 559.676, 514.450 560.407 M 514.500 562.673 C 509.787 565.175, 501.097 572.911, 499.474 576.050 C 498.663 577.618, 498 580.753, 498 583.018 C 498 586.822, 498.171 587.083, 500.250 586.453 C 508.262 584.027, 516.306 574.218, 518.457 564.250 C 519.246 560.595, 518.770 560.406, 514.500 562.673 M 638.039 565.189 C 635.073 568.372, 635.349 573.343, 638.635 575.927 C 642.049 578.613, 643.551 578.540, 646.545 575.545 C 649.886 572.205, 649.810 567.782, 646.365 565.073 C 642.988 562.416, 640.591 562.449, 638.039 565.189 M 638.066 566.876 C 634.476 573.585, 642.435 579.845, 646.557 573.553 C 647.935 571.450, 647.973 570.713, 646.823 568.303 C 645.095 564.679, 639.712 563.802, 638.066 566.876 M 82.339 569.560 C 81.169 572.608, 94.510 583.938, 101.580 585.901 C 110.561 588.394, 117.944 586.551, 116.552 582.163 C 115.666 579.372, 105.003 572.074, 98.500 569.808 C 92.001 567.543, 83.165 567.407, 82.339 569.560 M 87 573.473 C 88.925 575.501, 92.619 578.724, 95.208 580.635 C 99.173 583.560, 101.007 584.201, 106.817 584.688 C 115.705 585.433, 116.936 584.012, 111.484 579.300 C 105.278 573.935, 97.495 570.623, 90.050 570.177 L 83.500 569.785 87 573.473" stroke="none" fill="#d0d5d7" fill-rule="evenodd"/><path d="M 442.193 31.781 C 439.041 32.291, 437.323 36.219, 438.818 39.500 C 439.708 41.453, 440.701 42, 443.356 42 C 447.543 42, 449.234 40.119, 448.818 35.923 C 448.476 32.471, 446.308 31.115, 442.193 31.781 M 168 35.709 C 160.550 38.449, 162.014 49, 169.845 49 C 175.790 49, 178.048 41.957, 173.545 37.455 C 171.013 34.922, 170.543 34.774, 168 35.709 M 556.458 63.500 C 551.202 72.506, 550.848 76.295, 554.567 83.759 C 556.766 88.172, 558.008 89.348, 563.227 91.956 C 569.885 95.283, 571.588 95.520, 577.351 93.919 C 582.711 92.431, 590 85.022, 590 81.061 C 590 77, 586.664 75.089, 583.917 77.575 C 582.863 78.529, 582 79.803, 582 80.405 C 582 82.112, 575.370 86.981, 572.279 87.545 C 566.487 88.601, 560 81.936, 560 74.928 C 560 71.082, 560.149 70.897, 567.877 65.145 C 569.677 63.805, 570.082 62.834, 569.545 61.142 C 568.917 59.164, 568.263 58.943, 563.815 59.204 C 559.130 59.480, 558.636 59.769, 556.458 63.500 M 108.382 63.982 C 105.986 64.950, 105.438 66.971, 105.111 76.028 C 104.846 83.367, 104.589 84, 101.882 84 C 100.782 84, 100.160 83.550, 100.500 83 C 100.881 82.383, 99.157 82, 96 82 C 93.185 82, 91.128 82.399, 91.430 82.886 C 91.731 83.374, 91.049 84.015, 89.915 84.312 C 88.335 84.725, 87.928 85.511, 88.176 87.676 C 88.448 90.049, 89.019 90.550, 91.750 90.813 C 93.537 90.986, 95 91.548, 95 92.063 C 95 92.579, 96.013 92.968, 97.250 92.930 C 99.397 92.863, 99.408 92.820, 97.500 92 C 95.978 91.346, 96.575 91.127, 100 91.086 C 103.256 91.046, 104.085 91.299, 103 92 C 101.718 92.828, 101.754 92.972, 103.250 92.985 C 104.747 92.998, 105 94.002, 105 99.929 C 105 107.788, 106.663 110.786, 110.026 108.986 C 111.822 108.025, 112.444 105.939, 113.302 98 C 114.004 91.500, 113.960 91.537, 121.897 91 C 127.621 90.613, 129.543 90.089, 130.397 88.683 C 131.312 87.176, 130.988 86.444, 128.500 84.398 C 125.547 81.970, 122.988 81.793, 116.831 83.595 C 114.765 84.200, 114.083 82.246, 113.830 74.996 C 113.712 71.629, 112.945 68.488, 111.848 66.887 C 110.864 65.450, 110.346 63.988, 110.696 63.637 C 111.495 62.838, 111.049 62.905, 108.382 63.982 M 512.250 67.662 C 510.329 68.437, 510.767 74.495, 512.935 77.139 C 514.667 79.251, 515.034 79.340, 516.413 77.987 C 521.245 73.245, 518.050 65.322, 512.250 67.662 M 325.500 69.412 C 320.001 70.779, 310.278 75.506, 305.323 79.223 C 297.752 84.902, 289.877 96.935, 286.676 107.716 C 282.547 121.625, 283.562 132.776, 290.225 146.734 C 303.646 174.845, 337.084 186.092, 365.137 171.931 C 376.607 166.141, 388.117 152.450, 392.259 139.671 C 394.941 131.396, 395.116 115.897, 392.623 107.500 C 390.312 99.718, 383.331 88.514, 377.284 82.881 C 371.136 77.154, 361.157 71.612, 353.356 69.592 C 346.145 67.724, 332.645 67.637, 325.500 69.412 M 330.108 76.019 C 324.286 77.246, 314.435 81.975, 309.630 85.851 C 295.126 97.549, 288.576 118.702, 294.009 136.295 C 301.126 159.336, 326.597 175.062, 347.944 169.593 C 367.217 164.655, 380.971 151.727, 385.516 134.276 C 391.337 111.928, 378.630 87.402, 356.886 79.016 C 348.164 75.653, 337.505 74.460, 330.108 76.019 M 179.750 77.080 C 175.360 79.637, 179.747 87.782, 184.827 86.507 C 187.862 85.746, 188.963 84.394, 188.985 81.405 C 189.016 77.189, 183.776 74.735, 179.750 77.080 M 484.427 84.765 C 480.967 87.135, 483.211 93, 487.578 93 C 491.193 93, 492.976 88.736, 490.504 86.004 C 488.640 83.945, 486.317 83.471, 484.427 84.765 M 228.048 99.949 C 227.249 100.455, 226.331 100.704, 226.007 100.504 C 224.789 99.751, 226.269 106.978, 227.550 108.042 C 231.737 111.517, 237.209 105.098, 233.527 101.030 C 231.512 98.803, 230.252 98.555, 228.048 99.949 M 434.750 100.080 C 431.986 101.690, 432.456 106.795, 435.496 108.180 C 437.558 109.120, 438.340 109.002, 439.996 107.504 C 442.620 105.129, 442.537 102.490, 439.777 100.557 C 437.193 98.746, 437.061 98.734, 434.750 100.080 M 593 110.694 C 588.692 112.234, 587.743 118.132, 591.115 122.419 C 593.941 126.011, 599.381 125.739, 602.264 121.859 C 606.543 116.104, 599.983 108.198, 593 110.694 M 521.459 116.880 C 513.671 120.417, 508.653 129.697, 510.955 136.301 C 512.615 141.062, 514.687 143.761, 519.186 147.020 C 528.703 153.914, 542.880 148.586, 546.017 136.937 C 548.110 129.165, 543.906 120.224, 536.599 116.905 C 531.413 114.550, 526.604 114.542, 521.459 116.880 M 158.422 118.418 C 151.248 121.542, 143.852 130.650, 142.507 138.016 C 141.730 142.270, 144.114 149.911, 147.870 155.208 C 156.175 166.920, 175.283 167.747, 184.529 156.794 C 191.081 149.032, 192.772 139.292, 188.942 131.379 C 186.563 126.466, 180.275 120.431, 175.422 118.403 C 171.215 116.645, 162.477 116.653, 158.422 118.418 M 631.500 117.743 C 628.887 118.381, 628.034 119.814, 628.015 123.595 C 627.987 129.234, 634.694 132.205, 638.345 128.171 C 640.294 126.018, 640.536 120.674, 638.750 119.245 C 636.974 117.824, 633.834 117.173, 631.500 117.743 M 524.110 123.346 C 516.332 127.819, 517.833 140.940, 526.304 142.529 C 536.508 144.444, 543.418 132.606, 536.156 125.650 C 532.793 122.427, 527.476 121.410, 524.110 123.346 M 612.243 123.157 C 610.731 124.669, 610.632 128.443, 612.035 131.066 C 612.751 132.404, 614.133 133, 616.516 133 C 619.420 133, 620.068 132.578, 620.635 130.319 C 621.994 124.904, 615.790 119.610, 612.243 123.157 M 160.459 125.833 C 151.292 130.103, 147.865 139.124, 152.138 147.737 C 155.566 154.646, 159.980 157.283, 167.263 156.774 C 173.396 156.345, 176.791 154.500, 180.438 149.615 C 183.486 145.532, 183.343 135.682, 180.171 131.235 C 175.706 124.975, 167.265 122.662, 160.459 125.833 M 457 129.976 C 455.793 130.737, 455.402 134.338, 455 148.380 C 454.725 157.983, 454.241 166.096, 453.926 166.411 C 453.610 166.725, 448.006 167.244, 441.474 167.564 C 428.894 168.180, 426 168.980, 426 171.844 C 426 176.316, 427.820 176.948, 441.500 177.231 L 454.500 177.500 455.032 189.500 C 455.627 202.937, 456.220 205, 459.485 205 C 463.276 205, 463.922 202.965, 464.218 190.093 L 464.500 177.814 477.831 177.657 C 489.784 177.516, 491.309 177.299, 492.586 175.552 C 493.996 173.623, 493.659 170.444, 491.838 168.500 C 491.323 167.950, 485.202 167.415, 478.235 167.311 C 467.022 167.145, 465.493 166.915, 464.901 165.311 C 464.534 164.315, 464.162 156.324, 464.076 147.553 C 463.980 137.825, 463.496 131.098, 462.837 130.303 C 461.571 128.778, 459.119 128.640, 457 129.976 M 27.571 139.571 C 25.450 141.693, 25.585 146.315, 27.829 148.345 C 30.613 150.865, 36.645 150.518, 38.169 147.750 C 39.988 144.446, 39.771 142.765, 37.198 140.250 C 34.514 137.626, 29.846 137.297, 27.571 139.571 M 645.635 140.073 C 642.381 142.632, 641.945 148.735, 644.829 151.345 C 647.345 153.622, 652.555 153.445, 655 151 C 657.750 148.250, 657.654 142.687, 654.811 140.039 C 652.020 137.438, 648.969 137.450, 645.635 140.073 M 610 151.948 C 606.918 152.730, 606.218 156.157, 608.446 159.558 C 611.908 164.842, 619.944 160.500, 616.973 154.950 C 615.564 152.317, 612.962 151.197, 610 151.948 M 234.667 153.667 C 234.300 154.033, 234 155.825, 234 157.648 C 234 160.353, 234.461 161.078, 236.513 161.593 C 237.954 161.954, 239.660 161.697, 240.513 160.989 C 242.304 159.503, 242.458 155.858, 240.800 154.200 C 239.506 152.906, 235.753 152.580, 234.667 153.667 M 71.252 154.766 C 68.755 155.180, 67.425 158.613, 68.477 161.928 C 68.989 163.541, 69.969 164, 72.901 164 C 74.972 164, 76.878 163.789, 77.136 163.531 C 77.394 163.272, 77.419 161.461, 77.190 159.506 C 76.743 155.677, 74.855 154.170, 71.252 154.766 M 118.472 177.920 C 119.128 179.008, 118.906 179.178, 117.523 178.647 C 116.463 178.240, 114.681 178.634, 113.204 179.602 C 110.813 181.168, 110.725 181.157, 111.405 179.374 C 111.933 177.987, 111.826 177.790, 110.991 178.618 C 110.154 179.448, 110.262 180.692, 111.408 183.434 C 112.795 186.754, 113.284 187.098, 116.215 186.815 C 119.133 186.533, 119.541 186.104, 120.082 182.743 C 120.522 180.011, 120.268 178.646, 119.152 177.743 C 117.890 176.721, 117.769 176.753, 118.472 177.920 M 577.200 179.200 C 574.341 182.059, 576.648 186, 581.181 186 C 583.317 186, 584.108 185.417, 584.593 183.487 C 584.954 182.046, 584.697 180.340, 583.989 179.487 C 582.503 177.696, 578.858 177.542, 577.200 179.200 M 176.750 180.162 L 174 181.167 173.820 247.833 C 173.721 284.500, 173.352 311.125, 173 307 C 172.441 300.446, 172.340 301.203, 172.195 313 C 172.085 322.024, 172.352 326.003, 173 325 C 173.628 324.028, 173.975 373.690, 173.985 466.168 L 174 608.836 166.750 609.205 C 162.762 609.408, 159.156 609.414, 158.735 609.219 C 158.314 609.023, 158.057 512.783, 158.164 395.351 C 158.331 211.243, 158.161 181.714, 156.929 180.935 C 154.873 179.634, 154.402 179.748, 151.515 182.250 L 148.919 184.500 148.722 286.500 C 148.613 342.600, 148.702 437.930, 148.920 498.344 C 149.331 612.696, 149.413 609.920, 145.595 609.985 C 140.987 610.063, 125.477 581.183, 117.384 557.454 L 112.593 543.407 116.659 539.341 C 123.325 532.675, 126.307 525.211, 126.784 514 C 127.120 506.080, 126.833 503.559, 125.057 498.843 C 122.257 491.410, 118.927 486.572, 116.354 486.199 C 111.408 485.481, 102.257 497.859, 99.420 509.103 C 98.532 512.621, 97.460 515.867, 97.037 516.316 C 96.614 516.765, 94.745 515.710, 92.884 513.972 C 79.188 501.180, 63.106 494, 48.151 494 C 39.310 494, 38.136 496.387, 42.620 505.237 C 48.635 517.106, 61.076 529.937, 74 537.597 C 82.668 542.735, 86.670 544.007, 96.898 544.873 L 104.296 545.500 108.133 555 C 112.752 566.434, 112.593 567.854, 107.018 565.009 C 99.545 561.197, 91.328 559.698, 82.031 560.453 C 77.357 560.832, 72.964 561.615, 72.267 562.194 C 66.429 567.038, 84.382 587.972, 98.359 592.618 C 103.938 594.472, 112.381 594.886, 119.233 593.639 C 123.652 592.835, 124.028 592.934, 124.920 595.139 C 125.446 596.438, 127.252 599.525, 128.934 602 C 130.615 604.475, 131.993 607.063, 131.996 607.750 C 131.999 608.718, 126.216 609, 106.400 609 L 80.800 609 77.400 605.600 C 75.530 603.730, 74 601.310, 74 600.222 C 74 597.421, 71.944 596.062, 69.250 597.083 C 67.546 597.729, 67.001 598.731, 67.004 601.218 C 67.009 605.631, 69.770 609.878, 74.982 613.489 L 79.297 616.478 108.898 617.273 C 125.179 617.711, 242.675 617.885, 370 617.661 C 625.700 617.211, 604.824 617.805, 612.275 610.777 C 614.993 608.214, 616 606.439, 616 604.214 C 616 599.687, 615.050 598, 612.502 598 C 610.774 598, 609.831 598.965, 608.632 601.962 C 605.927 608.723, 605.259 608.887, 580 609.002 C 567.625 609.058, 556.938 609.080, 556.250 609.052 C 552.951 608.915, 555.897 606.569, 565.250 601.885 C 581.121 593.936, 588.717 588.592, 598.750 578.319 C 607.679 569.177, 609.861 565.686, 608.639 562.502 C 607.291 558.989, 603.700 561.119, 594.294 571.011 C 584.993 580.793, 574.594 588.686, 563.289 594.544 C 555.305 598.680, 554.513 597.645, 558.523 588.313 C 563.188 577.455, 565.816 566.609, 567.065 553.064 C 568.585 536.588, 568.329 537.289, 573.118 536.480 C 578.325 535.600, 589.458 529.791, 593.861 525.656 C 601.569 518.419, 608.471 507.159, 609.626 499.940 C 610.181 496.469, 609.968 495.450, 608.461 494.348 C 604.107 491.164, 587.657 494.107, 579.803 499.474 C 577.770 500.863, 575.857 502, 575.553 502 C 574.649 502, 575.106 494.862, 576.346 489.627 L 577.500 484.753 585 482.103 C 599.268 477.061, 610.835 465.977, 619.023 449.500 C 621.757 444, 624.357 439.050, 624.802 438.500 C 625.331 437.847, 631.831 437.776, 643.556 438.296 C 668.129 439.385, 675.804 438.988, 677.598 436.534 C 679.338 434.156, 679.337 433.843, 677.582 431.441 C 676.265 429.637, 674.446 429.465, 651.832 429 L 627.500 428.500 627 424 C 626.506 419.554, 626.452 419.496, 622.460 419.203 C 613.984 418.579, 595.776 430.495, 585.716 443.250 C 583.655 445.863, 581.639 447.999, 581.235 447.998 C 580.831 447.996, 579.244 445.592, 577.710 442.655 C 576.175 439.717, 573.363 435.806, 571.462 433.963 C 566.472 429.127, 563.615 430.359, 559.056 439.313 C 556.088 445.144, 555.554 447.294, 555.191 454.887 C 554.625 466.734, 556.411 472.636, 563.061 480.884 L 568.208 487.268 567.155 492.884 C 566.577 495.973, 565.803 501.087, 565.436 504.250 C 564.672 510.845, 563.277 511.527, 560.625 506.602 C 559.619 504.734, 556.388 501.127, 553.446 498.587 C 548.181 494.041, 535.108 487, 531.933 487 C 525.105 487, 525.324 504.160, 532.322 517.500 C 533.765 520.250, 536.053 523.728, 537.407 525.229 C 540.944 529.151, 551.665 535.846, 555.584 536.582 C 560.835 537.567, 561.271 538.714, 559.981 548.173 C 557.485 566.489, 554.933 576.394, 549.721 588 C 543.900 600.962, 537.952 608.160, 532.091 609.332 C 530.253 609.699, 521.886 610, 513.497 610 C 496.213 610, 495.684 609.784, 496.189 602.926 C 496.527 598.331, 496.426 598.422, 505.734 594.421 C 519.557 588.479, 529.761 570.525, 528.805 553.827 L 528.500 548.500 524.611 548.181 C 519.670 547.777, 510.475 552.184, 503.500 558.302 C 500.750 560.713, 497.938 562.494, 497.250 562.260 C 496.321 561.943, 496 557.780, 496 546.039 C 496 529.397, 495.469 527.381, 491.298 528.179 C 489.661 528.492, 489.445 530.361, 488.888 549.012 C 488.551 560.280, 488.214 578.325, 488.138 589.111 L 488 608.721 483.250 609.214 C 477.010 609.860, 433.168 609.222, 431.947 608.467 C 431.418 608.140, 431 601.102, 431 592.512 L 431 577.142 437.250 571.323 C 453.291 556.390, 454.232 555.302, 453.041 553.076 C 451.031 549.321, 447.553 550.514, 440.147 557.500 C 436.357 561.075, 432.749 564, 432.128 564 C 431.327 564, 431 558.043, 431 543.453 L 431 522.907 434.250 521.203 C 436.038 520.267, 439.637 517.427, 442.250 514.893 C 446.152 511.108, 447 509.655, 447 506.750 C 447 503.303, 445.769 502, 442.513 502 C 441.785 502, 440.029 503.982, 438.609 506.404 C 432.226 517.297, 418.620 517.016, 412.936 505.875 C 406.292 492.851, 422.096 480.147, 434.484 488.553 C 441.004 492.979, 445.887 489.722, 440.841 484.313 C 434.958 478.010, 423.789 476.026, 416.142 479.928 C 406.429 484.883, 401.470 495.597, 404.393 505.310 C 406.326 511.733, 412.025 518.531, 416.755 520.054 C 423.056 522.084, 423 521.928, 423 537.563 C 423 545.439, 422.653 552.097, 422.229 552.359 C 421.804 552.621, 418.128 549.948, 414.059 546.418 C 408.715 541.782, 405.875 540, 403.830 540 C 401.521 540, 401 540.435, 401 542.366 C 401 544.099, 403.470 546.891, 410.250 552.821 C 415.337 557.270, 420.512 561.814, 421.750 562.919 C 423.676 564.640, 424 565.932, 424 571.905 C 424 575.742, 423.545 579.163, 422.990 579.506 C 422.434 579.850, 418.153 576.726, 413.477 572.565 C 407.948 567.646, 404.141 565, 402.594 565 C 399.851 565, 398.582 567.350, 399.947 569.900 C 400.875 571.636, 409.040 578.967, 418.250 586.334 L 423 590.134 423 599.508 L 423 608.882 410.750 609.264 C 401.800 609.543, 343.468 609.362, 335.750 609.032 C 333.460 608.934, 335.668 605.568, 340.250 602.173 C 354.562 591.568, 358.302 586.460, 353.815 583.648 C 351.598 582.259, 348.641 583.862, 341.848 590.141 C 338.956 592.813, 336.285 595, 335.911 595 C 334.639 595, 334.188 591.015, 334.754 584.772 C 335.221 579.627, 335.771 578.183, 337.901 576.518 C 339.321 575.408, 343.773 571.635, 347.796 568.133 C 353.866 562.849, 355.058 561.318, 354.805 559.133 C 354.572 557.125, 353.871 556.427, 351.848 556.193 C 349.768 555.952, 347.796 557.195, 342.720 561.943 C 339.159 565.274, 335.965 568, 335.623 568 C 335.280 568, 335 564.428, 335 560.063 L 335 552.126 344.978 543.421 C 355.252 534.457, 357.039 531.957, 354.960 529.452 C 352.783 526.828, 350.038 527.917, 343.500 534 C 339.953 537.300, 336.589 540, 336.025 540 C 335.408 540, 335 536.714, 335 531.734 L 335 523.468 345 514.698 C 354.721 506.171, 356.320 503.720, 353.800 501.200 C 351.756 499.156, 350.345 499.801, 343.015 506.125 C 339.111 509.494, 335.598 511.932, 335.208 511.544 C 334.819 511.156, 334.275 503.610, 334 494.775 C 333.578 481.224, 333.239 478.547, 331.834 477.664 C 330.627 476.905, 329.731 476.978, 328.584 477.930 C 327.273 479.019, 326.988 481.849, 326.930 494.372 C 326.891 502.693, 326.540 510.308, 326.151 511.296 C 325.539 512.844, 324.620 512.350, 319.471 507.704 C 312.067 501.023, 309.995 499.864, 307.724 501.134 C 304.406 502.992, 305.942 505.800, 314.385 513.312 C 318.996 517.415, 323.592 521.232, 324.597 521.794 C 326.023 522.592, 326.505 524.321, 326.793 529.658 C 326.996 533.421, 326.774 537.523, 326.300 538.773 C 325.476 540.948, 325.142 540.766, 318.470 534.488 C 312.669 529.031, 310.998 527.979, 308.508 528.216 C 306.563 528.400, 305.397 529.129, 305.175 530.299 C 304.824 532.153, 307.749 535.293, 320.281 546.518 L 327 552.537 327 560.102 C 327 564.262, 326.716 567.951, 326.368 568.298 C 326.021 568.646, 322.984 566.421, 319.618 563.355 C 316.253 560.289, 312.516 557.320, 311.314 556.758 C 308.282 555.342, 306 556.474, 306 559.395 C 306 561.272, 308.184 563.673, 315.250 569.564 C 320.337 573.805, 325.063 577.974, 325.750 578.829 C 327.304 580.760, 327.476 595, 325.946 595 C 325.366 595, 321.754 592.300, 317.920 589 C 314.086 585.700, 310.375 583, 309.674 583 C 307.883 583, 306 585.090, 306 587.078 C 306 588.678, 314.163 596.332, 322.307 602.367 C 325.012 604.372, 326.025 605.813, 325.807 607.344 L 325.500 609.500 283.668 609.500 C 256.096 609.500, 241.542 609.148, 240.975 608.466 C 239.842 607.105, 240.620 606.112, 246 602.054 C 257.842 593.123, 262.727 586.260, 258.418 584.607 C 255.738 583.579, 255.222 583.834, 248.544 589.500 C 244.978 592.525, 241.597 595, 241.030 595 C 240.401 595, 240 591.551, 240 586.134 L 240 577.269 249.250 568.975 C 258.734 560.472, 261.137 557.519, 260.315 555.378 C 258.846 551.549, 253.816 553.460, 247.042 560.420 C 240.525 567.115, 239.998 566.728, 240.014 555.250 L 240.027 545.500 249.515 537.168 C 259.420 528.471, 261.504 525.076, 258.676 522.247 C 257.231 520.803, 256.755 520.898, 253.242 523.332 C 251.125 524.800, 247.866 527.575, 246 529.500 C 240.756 534.910, 240 534.295, 240 524.622 C 240 515.583, 240.277 515.038, 245.822 513.172 C 255.395 509.950, 262.015 500.067, 261.978 489.054 C 261.950 480.767, 259.762 475.840, 253.591 470.174 C 247.705 464.769, 243.542 463, 236.710 463 C 221.320 463, 209.691 473.976, 209.644 488.547 C 209.611 499.087, 215.146 507.255, 226.052 512.757 L 231.500 515.506 231.795 523.408 C 231.957 527.754, 231.724 531.676, 231.277 532.123 C 230.830 532.570, 227.651 530.250, 224.212 526.968 C 217.866 520.911, 215.210 519.837, 213.040 522.452 C 210.996 524.914, 212.680 527.335, 222.093 535.470 C 227.085 539.785, 231.581 544.398, 232.085 545.723 C 233.854 550.376, 232.740 564, 230.590 564 C 229.959 564, 227.085 561.496, 224.204 558.435 C 219.959 553.925, 218.448 552.930, 216.233 553.185 C 214.134 553.427, 213.430 554.104, 213.198 556.105 C 212.945 558.277, 214.481 560.165, 222.448 567.478 L 232 576.246 232 584.956 C 232 589.747, 231.702 593.965, 231.337 594.330 C 230.972 594.695, 228.049 592.490, 224.841 589.430 C 220.197 585, 218.447 583.931, 216.254 584.183 C 214.152 584.425, 213.430 585.102, 213.203 587.045 C 212.958 589.150, 214.323 590.793, 221.096 596.545 C 225.600 600.370, 229.896 604.095, 230.642 604.821 C 232.342 606.476, 232.396 608.660, 230.750 609.184 C 230.063 609.402, 219.172 609.538, 206.549 609.484 L 183.598 609.387 182.783 606.242 C 182.335 604.512, 182.087 563.650, 182.234 515.438 L 182.500 427.780 186 424.851 C 197.136 415.528, 218.102 403.837, 230.500 400.035 C 254.838 392.572, 276.437 392.289, 300.746 399.115 C 311.741 402.202, 323.725 407.101, 344.500 417 C 374.343 431.220, 394.141 438.501, 411.500 441.641 C 425.552 444.183, 456.090 444.219, 468 441.708 C 486.311 437.847, 510.264 428.455, 524 419.749 C 538.344 410.657, 543.647 407.048, 545.235 405.293 C 546.757 403.611, 546.943 394.963, 547.403 304.477 C 547.680 250.040, 547.654 204.488, 547.345 203.250 C 546.487 199.814, 543.337 200.477, 537.608 205.298 C 520.936 219.327, 502.713 230.152, 484.500 236.844 C 470.480 241.996, 463.464 243.253, 446 243.743 C 425.880 244.307, 418.911 243.473, 402.137 238.490 C 389.184 234.642, 380.382 230.922, 349.126 216.086 C 312.580 198.740, 298.459 194.466, 274 193.347 C 253.667 192.417, 237.281 195.090, 218.972 202.322 C 209.648 206.005, 193.501 214.431, 188.052 218.457 C 185.769 220.145, 184.269 220.669, 183.611 220.011 C 183.056 219.456, 182.464 211.195, 182.269 201.294 C 181.998 187.518, 181.595 183.210, 180.458 181.954 C 179.654 181.065, 179.297 180.037, 179.664 179.669 C 180.484 178.850, 180.223 178.894, 176.750 180.162 M 91.159 183.845 C 88.951 185.543, 88.814 186.307, 88.737 197.292 C 88.692 203.698, 88.389 209.371, 88.063 209.898 C 87.737 210.426, 81.433 211.053, 74.055 211.292 C 61.626 211.696, 60.505 211.893, 58.819 213.975 C 56.551 216.776, 56.556 217.230, 58.887 220.109 C 60.667 222.307, 61.527 222.456, 73.942 222.720 C 81.183 222.874, 87.534 223, 88.054 223 C 88.590 223, 89 227.671, 89 233.777 C 89 241.914, 89.382 245.100, 90.557 246.777 C 92.394 249.401, 95.213 249.653, 97.112 247.364 C 98.740 245.404, 98.658 246.084, 98.848 232.836 L 99 222.172 110.538 221.836 C 123.031 221.472, 123.955 221.052, 123.985 215.725 C 124.006 211.935, 120.662 210.811, 110 211.024 C 105.325 211.117, 100.903 211.150, 100.173 211.097 C 99.129 211.021, 98.906 208.311, 99.129 198.410 C 99.407 186.065, 99.364 185.783, 96.956 183.932 C 93.957 181.627, 94.041 181.628, 91.159 183.845 M 636.455 185.455 C 631.709 190.200, 634.887 196.384, 641.776 195.807 C 648.334 195.257, 650.292 186.821, 644.477 184.171 C 640.730 182.464, 639.200 182.709, 636.455 185.455 M 395.837 200.459 C 394.939 202.428, 395.048 203.424, 396.381 205.459 C 398.341 208.450, 401.034 208.725, 403.345 206.171 C 405.496 203.794, 405.440 201.709, 403.171 199.655 C 400.469 197.210, 397.152 197.573, 395.837 200.459 M 246.496 202.550 C 230.336 205.268, 207.550 214.887, 191.511 225.762 C 187.668 228.368, 183.962 231.625, 183.276 233 C 182.355 234.847, 182.074 242.948, 182.201 264 C 182.307 281.566, 182.613 289.239, 183 284 C 183.564 276.360, 183.646 276.992, 183.814 290.250 C 183.916 298.363, 184.389 305, 184.865 305 C 185.341 305, 186.803 304.167, 188.115 303.149 C 191.668 300.393, 208.707 291.439, 215 289.022 C 218.025 287.860, 221.909 286.259, 223.631 285.464 C 232.454 281.392, 260.358 276.655, 271.883 277.273 C 281.676 277.797, 302.518 281.315, 308.500 283.453 C 318.279 286.949, 331.419 292.178, 342.500 296.985 C 349.100 299.849, 357.766 303.489, 361.759 305.074 C 365.751 306.660, 370.437 308.692, 372.171 309.589 C 379.710 313.487, 401.633 320.022, 415.573 322.527 C 428.895 324.921, 432.113 325.150, 445.500 324.658 C 463.698 323.988, 475.640 321.616, 491.153 315.592 C 502.033 311.367, 516.454 304.425, 524.123 299.722 C 526.116 298.500, 530.030 296.150, 532.820 294.500 C 535.611 292.850, 538.368 290.466, 538.947 289.203 C 540.365 286.109, 540.400 217.365, 538.984 216.490 C 538.425 216.145, 532.238 219.659, 525.234 224.299 C 511.473 233.417, 503.524 237.683, 489.502 243.477 C 475.677 249.190, 465.938 251.073, 447 251.695 C 415.810 252.719, 397.607 248.030, 358 228.768 C 345.625 222.750, 331.675 216.098, 327 213.987 C 316.159 209.090, 296.436 203.368, 285.804 202.035 C 274.773 200.651, 256.347 200.893, 246.496 202.550 M 42 234 C 39.523 236.477, 39.513 237.176, 41.909 240.139 C 43.695 242.347, 44.607 242.522, 56 242.836 C 70.243 243.228, 72.407 242.834, 74.629 239.443 C 75.953 237.423, 76.060 236.426, 75.163 234.459 C 74.046 232.006, 74.007 232, 59.021 232 C 45.333 232, 43.822 232.178, 42 234 M 603.019 234.478 C 602.344 235.290, 601.727 238.778, 601.646 242.228 L 601.500 248.500 593.050 248.794 C 584.262 249.099, 582 249.978, 582 253.087 C 582 255.921, 585.161 257, 593.459 257 C 600.635 257, 601.101 257.136, 602 259.500 C 603.244 262.773, 605.888 262.673, 608.618 259.250 C 610.699 256.640, 611.185 256.514, 618.170 256.782 C 626.961 257.120, 629.667 255.793, 628.628 251.656 C 627.969 249.030, 627.862 249, 619.040 249 C 612.992 249, 609.863 248.597, 609.325 247.750 C 608.889 247.063, 608.675 244.207, 608.849 241.404 C 609.080 237.679, 608.720 235.863, 607.511 234.654 C 605.473 232.616, 604.592 232.582, 603.019 234.478 M 183.272 257 C 183.272 259.475, 183.467 260.488, 183.706 259.250 C 183.944 258.012, 183.944 255.988, 183.706 254.750 C 183.467 253.512, 183.272 254.525, 183.272 257 M 39.186 256.636 C 36.018 260.051, 39.967 266.763, 43.750 264.394 C 45.685 263.182, 46.481 259.208, 45.186 257.227 C 43.952 255.340, 40.687 255.019, 39.186 256.636 M 584.500 270.724 C 579.831 271.871, 578.590 275.414, 581.829 278.345 C 583.419 279.784, 586.666 280, 606.757 280 C 626.745 280, 630.076 279.781, 631.482 278.375 C 632.375 277.482, 632.970 275.806, 632.803 274.650 C 632.222 270.622, 628.804 270.023, 607 270.131 C 595.725 270.186, 585.600 270.453, 584.500 270.724 M 101.011 285.487 C 100.306 286.336, 100.046 288.046, 100.404 289.472 C 101.639 294.395, 110 293.549, 110 288.500 C 110 284.513, 103.599 282.368, 101.011 285.487 M 32.455 298.455 C 27.655 303.255, 30.241 310.539, 37.137 311.643 C 40.007 312.102, 41.221 311.779, 42.887 310.113 C 47.700 305.300, 43.333 296.089, 36.205 296.014 C 35.492 296.006, 33.805 297.105, 32.455 298.455 M 615.452 299.433 C 612.616 303.761, 617.310 308.510, 621.962 306.020 C 625.867 303.931, 623.554 297, 618.952 297 C 617.904 297, 616.329 298.095, 615.452 299.433 M 661 301 C 658.338 303.662, 658.428 308.389, 661.189 310.961 C 665.687 315.152, 672 312.054, 672 305.655 C 672 299.575, 665.272 296.728, 661 301 M 251.500 309.648 C 245.715 310.307, 226.656 315.826, 218.500 319.203 C 214.650 320.797, 209.700 322.838, 207.500 323.739 C 205.300 324.639, 200.694 327.083, 197.264 329.169 C 193.834 331.255, 189.446 333.622, 187.514 334.430 C 184.087 335.861, 184 336.038, 184 341.508 C 184 345.171, 183.636 346.893, 182.950 346.469 C 181.695 345.693, 182.034 412.781, 183.295 414.728 C 183.868 415.613, 185.967 414.601, 190.795 411.113 C 203.675 401.809, 222.734 392.993, 236.752 389.856 C 240.169 389.092, 241.614 388.377, 240.788 387.861 C 240.080 387.419, 241.300 387.306, 243.500 387.611 C 246.569 388.037, 247.151 387.908, 246 387.059 C 244.866 386.223, 245.840 386.084, 250 386.491 C 253.958 386.877, 254.939 386.755, 253.500 386.055 C 252.092 385.370, 253.868 385.207, 259.500 385.504 C 264.687 385.778, 266.797 385.612, 265.500 385.033 C 263.586 384.179, 263.597 384.138, 265.750 384.070 C 266.988 384.032, 268 384.512, 268 385.138 C 268 385.949, 270.429 386.096, 276.435 385.650 C 285.986 384.941, 292.761 385.740, 289.453 387.184 C 288.091 387.779, 288.641 387.898, 291.272 387.578 C 293.849 387.264, 294.830 387.466, 294.367 388.215 C 293.898 388.974, 294.740 389.110, 297.095 388.657 C 299.492 388.197, 300.056 388.294, 299 388.986 C 297.717 389.827, 297.754 389.972, 299.255 389.985 C 302.919 390.017, 324.293 398.632, 344.500 408.223 C 390.980 430.282, 410.876 436, 441.151 436 C 456.368 436, 465.832 434.622, 479.898 430.358 C 493.748 426.160, 517.153 415.122, 529.636 406.902 C 537.105 401.984, 538.885 400.325, 539.386 397.818 C 539.724 396.130, 540 378.592, 540 358.844 C 540 318.695, 540.148 319.449, 533.300 324.788 C 531.210 326.418, 525 330.294, 519.500 333.401 C 514 336.508, 508.825 339.481, 508 340.009 C 504.205 342.433, 490.601 348.107, 484.382 349.857 C 480.597 350.923, 476.341 352.250, 474.924 352.807 C 473.507 353.363, 467.672 354.600, 461.957 355.556 C 450.146 357.531, 426.669 357.067, 415 354.628 C 404.838 352.504, 385.966 347.081, 381.002 344.858 C 378.526 343.750, 372.962 341.541, 368.637 339.950 C 364.312 338.359, 360.261 336.632, 359.634 336.112 C 359.008 335.591, 356.057 334.205, 353.078 333.031 C 350.098 331.856, 345.374 329.805, 342.580 328.473 C 329.421 322.198, 307.710 314.748, 291.500 310.947 C 287.017 309.895, 257.683 308.943, 251.500 309.648 M 582.200 324.200 C 581.540 324.860, 581 326.345, 581 327.500 C 581 328.655, 581.540 330.140, 582.200 330.800 C 585.068 333.668, 590 331.477, 590 327.335 C 590 323.786, 584.731 321.669, 582.200 324.200 M 105 334.094 C 106.176 334.927, 105.917 335.064, 103.799 334.726 C 102.314 334.490, 101.189 334.736, 101.299 335.273 C 101.410 335.810, 100.875 336.477, 100.111 336.755 C 99.178 337.094, 98.960 336.806, 99.446 335.880 C 99.844 335.121, 98.890 335.850, 97.326 337.500 C 94.820 340.143, 94.523 341.113, 94.830 345.645 C 95.352 353.344, 98.894 357.163, 106.263 357.974 C 109.764 358.359, 111.641 358.229, 111.268 357.625 C 110.912 357.048, 111.429 356.951, 112.555 357.383 C 113.591 357.780, 114.114 357.781, 113.717 357.384 C 112.906 356.573, 115.917 352.830, 116.894 353.435 C 118.110 354.186, 118.133 342.865, 116.919 341.402 C 116.257 340.604, 116.005 339.662, 116.360 339.307 C 117.471 338.196, 113.901 335.101, 112.242 335.737 C 111.307 336.096, 110.928 335.925, 111.306 335.314 C 111.697 334.681, 110.900 334.430, 109.220 334.658 C 106.877 334.976, 106.777 334.897, 108.500 334.084 C 110.190 333.287, 109.958 333.132, 107 333.086 C 104.263 333.043, 103.827 333.262, 105 334.094 M 653 339 C 648.695 343.305, 651.581 351, 657.500 351 C 659.866 351, 661.356 350.330, 662.443 348.777 C 665.848 343.916, 662.945 337, 657.500 337 C 656.125 337, 654.100 337.900, 653 339 M 38.605 342.170 C 39.071 342.924, 38.809 343.141, 37.868 342.780 C 36.812 342.374, 36.345 343.054, 36.178 345.241 C 36.052 346.902, 36.200 349.054, 36.507 350.023 C 37.291 352.492, 41.023 353.215, 43.752 351.427 C 45.616 350.205, 45.975 349.224, 45.659 346.211 C 45.337 343.140, 44.918 342.551, 43.224 342.798 C 42.098 342.962, 40.886 342.624, 40.530 342.048 C 40.173 341.472, 39.432 341, 38.882 341 C 38.332 341, 38.207 341.526, 38.605 342.170 M 103.463 345.932 C 103.721 349.214, 104.016 349.447, 106.792 348.566 C 108.540 348.011, 108.930 347.354, 108.435 345.794 C 107.945 344.252, 108.119 343.943, 109.143 344.535 C 109.889 344.967, 110.154 344.940, 109.732 344.476 C 109.310 344.011, 107.681 343.571, 106.113 343.497 C 103.635 343.382, 103.288 343.701, 103.463 345.932 M 582.960 377.831 C 581.196 379.260, 580.848 380.259, 581.379 382.374 C 582.167 385.513, 583.986 386.471, 587.487 385.593 C 591.123 384.680, 592.012 380.238, 589.040 377.831 C 587.796 376.824, 586.428 376, 586 376 C 585.572 376, 584.204 376.824, 582.960 377.831 M 91.449 383.414 C 89.697 384.695, 89.487 386.362, 89.221 401.164 C 88.973 414.968, 88.671 417.694, 87.273 418.750 C 86.201 419.559, 82.038 420, 75.464 420 C 66.897 420, 65.051 420.286, 63.655 421.829 C 61.514 424.194, 61.558 426.290, 63.790 428.310 C 65.176 429.564, 68.172 429.995, 77.040 430.215 L 88.500 430.500 89.090 439.842 C 89.692 449.367, 90.422 450.951, 94.227 450.985 C 97.648 451.015, 99.247 446.622, 98.860 438.258 L 98.500 430.500 110.102 430 C 122.053 429.485, 125 428.502, 125 425.033 C 125 424.085, 124.052 422.453, 122.892 421.405 C 121.098 419.783, 119.204 419.500, 110.142 419.500 L 99.500 419.500 99.226 402.073 C 99.056 391.290, 98.533 384.142, 97.853 383.323 C 96.427 381.605, 93.874 381.641, 91.449 383.414 M 618.223 395.557 C 614.057 398.474, 616.322 405, 621.500 405 C 626.553 405, 628.638 399.638, 625 396 C 622.593 393.593, 621.160 393.499, 618.223 395.557 M 227.750 420.080 C 224.306 422.086, 225.917 428, 229.907 428 C 234.667 428, 236.658 423.801, 233.429 420.571 C 231.621 418.764, 230.219 418.642, 227.750 420.080 M 608 433.365 C 600.739 438.175, 590.419 448.722, 586.602 455.236 C 584.231 459.281, 581.142 473.475, 582.366 474.699 C 583.106 475.439, 591.526 470.460, 596.843 466.138 C 605.714 458.926, 616.557 441.246, 617.232 432.893 C 617.613 428.183, 615.674 428.282, 608 433.365 M 35.200 442.200 C 33.657 443.743, 33.657 447.257, 35.200 448.800 C 37.386 450.986, 41.930 450.249, 43.180 447.504 C 44.120 445.442, 44.002 444.660, 42.504 443.004 C 40.474 440.761, 37.019 440.381, 35.200 442.200 M 564.297 444.662 C 563.185 447.212, 562.605 451.352, 562.568 457 C 562.521 464.407, 562.869 466.175, 565.274 470.750 C 566.792 473.637, 568.712 476, 569.542 476 C 572.705 476, 575.425 463.523, 573.956 455.750 C 572.830 449.792, 569.127 441.780, 567.236 441.207 C 566.531 440.993, 565.231 442.523, 564.297 444.662 M 284.250 451.662 C 282.657 452.305, 282.622 457.222, 284.200 458.800 C 284.860 459.460, 286.345 460, 287.500 460 C 288.655 460, 290.140 459.460, 290.800 458.800 C 291.460 458.140, 292 456.655, 292 455.500 C 292 451.779, 288.391 449.991, 284.250 451.662 M 496.835 467.933 C 494.845 469.544, 494.716 470.081, 495.765 472.383 C 497.914 477.100, 504.592 475.055, 503.827 469.914 C 503.350 466.713, 499.640 465.661, 496.835 467.933 M 68.667 469.667 C 67.455 470.878, 67.974 475.734, 69.445 476.954 C 71.463 478.629, 75.015 477.887, 76.622 475.454 C 77.772 473.713, 77.743 473.078, 76.430 471.204 C 74.943 469.081, 70.193 468.140, 68.667 469.667 M 229.481 473.394 C 225.466 475.143, 220.339 481.112, 219.149 485.423 C 216.340 495.597, 224.698 506, 235.680 506 C 242.712 506, 247.072 504.084, 250.618 499.434 C 256.628 491.555, 253.313 478.751, 244.039 474.020 C 239.524 471.717, 233.886 471.474, 229.481 473.394 M 625.655 493.829 C 622.364 497.466, 624.753 504, 629.374 504 C 632.282 504, 636.222 499.296, 635.461 496.733 C 634.072 492.054, 628.701 490.463, 625.655 493.829 M 110.049 502.903 C 104.868 513.166, 104.078 527.622, 108.376 533.500 C 109.546 535.099, 109.814 535.055, 112.225 532.860 C 115.631 529.758, 119.071 520.054, 119.239 513.073 C 119.393 506.631, 116.514 497, 114.434 497 C 113.661 497, 111.688 499.656, 110.049 502.903 M 535 500.489 C 535 505.326, 538.099 513.005, 542.436 518.913 C 545.050 522.473, 547.817 524.752, 552.168 526.926 C 555.512 528.597, 558.643 529.721, 559.124 529.423 C 560.798 528.389, 559.966 521.469, 557.542 516.263 C 554.476 509.677, 547.092 501.707, 541.587 499.042 C 535.806 496.244, 535 496.421, 535 500.489 M 591.423 503.363 C 584.145 506.070, 579.443 508.874, 575.803 512.680 C 570.908 517.799, 568.290 527.130, 571.413 528.328 C 573.952 529.302, 586.282 522.455, 591.156 517.363 C 595.579 512.744, 602 503.531, 602 501.804 C 602 500.398, 597.692 501.033, 591.423 503.363 M 50.516 502.973 C 49.443 504.710, 52.524 508.744, 62.394 518.522 C 72.511 528.545, 81.908 534.245, 91.487 536.169 C 99.635 537.805, 100.368 536.545, 95.496 529.270 C 89.715 520.636, 84.262 515.291, 76.709 510.854 C 66.277 504.725, 52.075 500.452, 50.516 502.973 M 489.200 512.200 C 488.540 512.860, 488 514.345, 488 515.500 C 488 520.215, 494.205 521.839, 496.124 517.626 C 498.265 512.929, 492.774 508.626, 489.200 512.200 M 641.223 518.557 C 638.551 520.428, 638.181 526.038, 640.571 528.429 C 642.721 530.578, 648.300 530.431, 650.345 528.171 C 652.772 525.490, 652.474 520.446, 649.777 518.557 C 648.555 517.701, 646.630 517, 645.500 517 C 644.370 517, 642.445 517.701, 641.223 518.557 M 590.750 554.080 C 588.592 555.337, 588.466 559.312, 590.530 561.025 C 592.790 562.901, 597 560.752, 597 557.721 C 597 553.666, 594.231 552.053, 590.750 554.080 M 514.450 560.407 C 510.547 562.107, 499.327 572.468, 497.442 576.111 C 495.786 579.315, 495.504 587.576, 497.020 588.512 C 498.984 589.726, 505.431 586.677, 510.065 582.343 C 514.894 577.826, 519.277 569.624, 520.536 562.750 C 521.130 559.507, 520.971 559.005, 519.361 559.039 C 518.338 559.061, 516.127 559.676, 514.450 560.407 M 638.066 566.876 C 634.476 573.585, 642.435 579.845, 646.557 573.553 C 647.935 571.450, 647.973 570.713, 646.823 568.303 C 645.095 564.679, 639.712 563.802, 638.066 566.876 M 82.339 569.560 C 81.169 572.608, 94.510 583.938, 101.580 585.901 C 110.561 588.394, 117.944 586.551, 116.552 582.163 C 115.666 579.372, 105.003 572.074, 98.500 569.808 C 92.001 567.543, 83.165 567.407, 82.339 569.560" stroke="none" fill="#f8f9f9" fill-rule="evenodd"/></svg>