<?xml version="1.0" standalone="no"?>
<!DOCTYPE svg PUBLIC "-//W3C//DTD SVG 20010904//EN"
 "http://www.w3.org/TR/2001/REC-SVG-20010904/DTD/svg10.dtd">
<svg version="1.0" xmlns="http://www.w3.org/2000/svg"
 width="500.000000pt" height="500.000000pt" viewBox="0 0 500.000000 500.000000"
 preserveAspectRatio="xMidYMid meet">

<g transform="translate(0.000000,500.000000) scale(0.100000,-0.100000)"
fill="#000000" stroke="none">
<path d="M2240 4376 c-275 -42 -521 -130 -745 -264 -507 -304 -860 -849 -926
-1431 -15 -132 -6 -435 15 -552 22 -117 70 -285 110 -383 18 -45 40 -102 50
-129 19 -51 45 -72 76 -62 42 13 40 35 -16 166 -56 131 -104 304 -131 474 -20
122 -22 397 -4 510 62 395 199 687 462 984 242 273 614 487 989 567 88 19 158
26 300 31 360 11 580 -32 880 -173 246 -115 400 -233 612 -469 101 -113 165
-211 257 -390 117 -231 181 -512 181 -798 0 -234 -59 -524 -149 -732 -28 -66
-51 -127 -51 -137 0 -41 70 -46 91 -7 53 101 143 372 173 524 112 571 -50
1163 -441 1617 -189 218 -420 392 -662 499 -124 55 -328 117 -461 141 -145 26
-480 34 -610 14z"/>
<path d="M2470 4105 c-17 -25 -41 -47 -53 -49 -12 -3 -42 -8 -67 -13 -63 -11
-74 -43 -38 -116 l26 -53 -24 -44 c-13 -25 -23 -54 -24 -66 0 -30 31 -54 71
-54 57 0 73 -9 103 -56 29 -46 67 -65 95 -47 9 5 28 27 42 48 30 44 48 53 102
54 39 1 77 28 77 56 0 8 -10 35 -22 60 -19 39 -21 50 -10 75 7 17 17 43 24 59
9 22 9 36 0 55 -9 21 -20 26 -73 32 -65 7 -82 18 -111 72 -14 27 -23 32 -52
32 -30 0 -39 -6 -66 -45z m85 -64 c21 -42 63 -71 101 -71 39 0 39 1 19 -36
-21 -40 -19 -81 6 -120 l21 -34 -44 0 c-52 0 -80 -17 -102 -65 -20 -42 -31
-44 -40 -9 -12 46 -50 74 -100 74 l-45 0 20 45 c20 45 19 67 -6 128 -6 14 -1
17 30 17 29 0 45 8 71 34 19 19 34 41 34 50 0 25 18 19 35 -13z"/>
<path d="M1835 4041 c-9 -28 5 -51 31 -51 29 0 46 28 33 52 -13 24 -56 23 -64
-1z"/>
<path d="M1966 4042 c-11 -32 4 -53 33 -50 22 2 26 8 26 33 0 25 -4 31 -27 33
-19 2 -28 -2 -32 -16z"/>
<path d="M2095 4040 c-14 -43 44 -67 68 -28 8 12 7 21 -2 32 -19 23 -58 20
-66 -4z"/>
<path d="M2909 4044 c-17 -21 0 -49 31 -49 31 0 48 28 31 49 -8 9 -21 16 -31
16 -10 0 -23 -7 -31 -16z"/>
<path d="M3039 4044 c-17 -21 0 -49 31 -49 31 0 48 28 31 49 -8 9 -21 16 -31
16 -10 0 -23 -7 -31 -16z"/>
<path d="M3056 3915 c-8 -8 -18 -25 -21 -36 -6 -19 -13 -21 -57 -17 -61 6 -82
-9 -68 -48 15 -38 2 -74 -31 -86 -51 -18 -50 -66 3 -86 30 -11 31 -12 24 -60
-5 -41 -3 -52 14 -67 17 -15 24 -16 50 -5 35 14 52 5 73 -39 19 -40 53 -39 77
2 25 42 41 50 75 37 14 -5 32 -7 40 -4 20 8 29 48 16 72 -15 28 -5 47 35 71
43 26 45 55 4 76 -39 20 -56 55 -41 83 14 26 14 28 -4 46 -12 11 -27 14 -59
10 -41 -6 -44 -5 -64 30 -23 39 -42 45 -66 21z m84 -120 c50 -26 77 -98 56
-149 -42 -97 -163 -110 -217 -22 -64 105 52 227 161 171z"/>
<path d="M3031 3734 c-28 -35 -26 -69 4 -99 28 -29 51 -31 83 -9 34 23 44 48
32 80 -23 58 -84 73 -119 28z m67 -51 c-2 -10 -10 -18 -18 -18 -8 0 -16 8 -18
18 -2 12 3 17 18 17 15 0 20 -5 18 -17z"/>
<path d="M1843 3864 c-17 -8 -16 -39 2 -54 24 -20 57 -3 53 28 -3 27 -27 38
-55 26z"/>
<path d="M1970 3855 c-25 -30 15 -70 45 -45 20 16 19 46 -1 54 -23 9 -30 8
-44 -9z"/>
<path d="M2102 3858 c-18 -18 -15 -36 7 -48 23 -12 47 -5 55 17 13 33 -36 57
-62 31z"/>
<path d="M1503 3827 c-61 -23 -119 -73 -144 -123 -28 -59 -37 -156 -19 -219
16 -55 76 -126 131 -153 l41 -20 1 -914 2 -913 -313 -2 c-225 -1 -317 -5 -328
-14 -19 -16 -18 -43 4 -62 16 -15 54 -17 330 -17 l312 0 0 -110 0 -110 -158 0
-159 0 -52 55 c-53 55 -84 68 -109 43 -33 -33 0 -76 167 -222 233 -202 379
-286 667 -386 223 -77 422 -105 693 -97 212 6 344 27 516 81 315 100 529 227
770 455 114 108 131 132 115 161 -20 37 -60 25 -120 -35 l-54 -55 -143 0 -143
0 0 110 0 110 296 0 c184 0 303 4 315 10 22 12 25 52 5 69 -19 16 -2243 16
-2263 0 -18 -16 -16 -43 5 -62 16 -15 53 -17 315 -17 l297 0 0 -110 0 -110
-400 0 -400 0 0 275 0 275 43 31 c115 84 265 138 409 146 128 8 220 -8 398
-67 273 -90 411 -120 558 -120 201 0 445 86 565 199 71 67 67 14 67 809 l0
719 -25 27 c-13 14 -33 26 -43 26 -10 0 -52 -24 -93 -53 -193 -137 -302 -177
-480 -177 -110 0 -197 20 -418 96 -245 84 -363 103 -531 86 -133 -13 -224 -41
-347 -107 -47 -25 -87 -45 -89 -45 -2 0 -4 8 -4 18 0 10 15 26 34 36 75 40
126 135 126 233 0 104 -84 223 -178 251 -49 15 -127 14 -169 -1z m134 -156
c49 -23 63 -45 63 -100 0 -122 -169 -149 -216 -35 -19 45 -11 84 24 116 46 43
68 46 129 19z m782 -391 c42 -11 150 -44 241 -75 212 -71 282 -85 427 -85 170
0 290 31 421 109 29 17 55 31 57 31 3 0 5 -280 5 -623 l0 -623 -77 -46 c-239
-142 -456 -154 -788 -44 -158 53 -269 85 -350 102 -79 17 -255 19 -330 5 -91
-17 -219 -63 -276 -97 -31 -19 -59 -34 -63 -34 -3 0 -6 272 -6 604 l0 604 78
50 c211 135 443 178 661 122z m1012 -1975 c1 -47 2 -92 2 -100 0 -8 -1 -19 -2
-25 -1 -6 -153 -10 -436 -10 l-435 0 0 110 0 110 435 0 435 0 1 -85z m-1913
-292 c2 -63 0 -83 -10 -83 -14 1 -107 67 -172 122 l-38 33 73 6 c41 3 90 5
109 5 l35 -1 3 -82z m960 45 l3 -38 -440 0 -441 0 0 40 0 40 438 -2 437 -3 3
-37z m960 0 l3 -38 -440 0 -441 0 0 40 0 40 438 -2 437 -3 3 -37z m236 34 l38
-7 -43 -35 c-70 -56 -140 -102 -147 -96 -8 9 -15 113 -9 131 7 16 87 20 161 7z
m-1596 -142 l402 0 0 -129 0 -129 -67 4 c-200 13 -366 40 -496 81 -43 13 -87
25 -98 26 -10 1 -19 4 -19 8 0 11 -39 18 -46 8 -6 -11 -24 -12 -23 -1 3 18 -2
32 -11 32 -5 0 -6 -8 -3 -17 6 -16 5 -16 -10 -4 -9 7 -14 17 -11 22 5 9 -9 13
-35 10 -8 -2 -10 2 -5 11 6 11 5 11 -8 0 -14 -11 -19 -9 -32 10 -9 12 -16 36
-16 52 0 28 1 28 38 22 20 -3 218 -6 440 -6z m1358 -2 c8 -9 -12 -59 -23 -57
-21 4 -33 -2 -27 -13 4 -6 3 -8 -4 -5 -14 9 -43 -3 -36 -15 3 -5 0 -9 -7 -7
-37 5 -51 -1 -44 -18 5 -14 3 -15 -5 -7 -14 14 -52 6 -43 -9 3 -5 1 -7 -5 -3
-6 3 -28 0 -49 -9 -125 -49 -332 -89 -565 -110 l-68 -6 0 131 0 130 243 2
c414 5 625 3 633 -4z m-1646 -150 c0 -6 -6 -5 -15 2 -8 7 -15 14 -15 16 0 2 7
1 15 -2 8 -4 15 -11 15 -16z m37 -14 c-3 -3 -12 -4 -19 -1 -8 3 -5 6 6 6 11 1
17 -2 13 -5z m208 -72 c-3 -3 -11 0 -18 7 -9 10 -8 11 6 5 10 -3 15 -9 12 -12z
m682 -48 c-3 -3 -12 -4 -19 -1 -8 3 -5 6 6 6 11 1 17 -2 13 -5z"/>
<path d="M2084 2770 c-31 -12 -37 -28 -14 -35 50 -16 67 -76 32 -108 -32 -29
-69 -21 -91 21 -16 30 -31 19 -31 -22 0 -68 70 -136 147 -143 152 -13 213 196
81 277 -34 21 -87 25 -124 10z"/>
<path d="M2921 2763 c-33 -16 -33 -17 -10 -25 40 -15 59 -39 59 -75 0 -26 -6
-36 -24 -44 -32 -15 -73 -4 -81 22 -11 32 -30 15 -29 -25 2 -68 64 -126 141
-133 85 -8 159 61 157 148 -1 108 -118 181 -213 132z"/>
<path d="M2420 2635 c-21 -25 -5 -85 34 -123 79 -80 225 -36 243 71 7 43 -9
67 -42 67 -18 0 -26 -9 -36 -37 -16 -53 -27 -63 -64 -63 -38 0 -55 17 -64 63
-5 25 -12 33 -32 35 -14 2 -31 -4 -39 -13z"/>
<path d="M3496 3761 c-8 -15 -26 -36 -40 -45 -34 -22 -34 -59 -1 -74 13 -6 31
-25 40 -42 21 -40 48 -39 74 5 11 19 27 35 34 35 21 0 39 26 33 47 -3 10 -19
26 -36 35 -16 9 -30 24 -30 32 0 15 -29 36 -49 36 -6 0 -17 -13 -25 -29z m50
-99 c-12 -12 -18 -13 -30 -3 -12 10 -13 17 -3 31 10 18 13 18 29 3 17 -15 17
-18 4 -31z"/>
<path d="M1972 3668 c-30 -30 0 -78 37 -58 26 14 27 46 2 60 -24 13 -24 13
-39 -2z"/>
<path d="M2106 3664 c-9 -8 -16 -19 -16 -24 0 -11 29 -40 40 -40 11 0 40 29
40 40 0 11 -29 40 -40 40 -5 0 -16 -7 -24 -16z"/>
<path d="M3732 3608 c-18 -18 -14 -46 9 -58 16 -9 25 -8 40 6 23 21 24 28 3
48 -19 19 -36 20 -52 4z"/>
<path d="M3370 3515 c-6 -8 -9 -23 -5 -35 9 -27 60 -28 68 -1 10 41 -36 69
-63 36z"/>
<path d="M1093 3452 c-9 -16 -29 -36 -45 -45 -37 -21 -37 -53 2 -75 16 -9 35
-29 41 -44 15 -37 44 -36 64 1 8 16 24 32 35 36 24 8 42 38 34 58 -3 8 -16 20
-30 28 -14 7 -32 26 -40 41 -19 36 -41 36 -61 0z m48 -96 c-10 -12 -17 -13
-31 -3 -18 10 -18 13 -3 29 15 17 18 17 31 4 12 -12 13 -18 3 -30z"/>
<path d="M3836 3424 c-36 -37 -36 -93 2 -133 39 -43 84 -45 130 -6 36 30 45
69 27 113 -24 57 -113 72 -159 26z m94 -49 c15 -18 -2 -45 -30 -45 -23 0 -34
28 -19 46 15 18 33 18 49 -1z"/>
<path d="M999 3204 c-17 -21 0 -49 31 -49 31 0 48 28 31 49 -8 9 -21 16 -31
16 -10 0 -23 -7 -31 -16z"/>
<path d="M1205 3200 c-14 -43 44 -67 68 -28 8 12 7 21 -2 32 -19 23 -58 20
-66 -4z"/>
<path d="M3874 3126 c-12 -31 0 -51 31 -51 27 0 30 3 30 30 0 25 -4 30 -28 33
-17 2 -29 -2 -33 -12z"/>
<path d="M4079 3124 c-17 -21 0 -49 31 -49 31 0 48 28 31 49 -8 9 -21 16 -31
16 -10 0 -23 -7 -31 -16z"/>
<path d="M946 3044 c-13 -13 -16 -46 -16 -210 0 -252 -16 -234 204 -234 136 0
167 3 180 16 14 13 16 47 16 219 0 192 -1 205 -19 215 -11 6 -90 10 -185 10
-136 0 -167 -3 -180 -16z m304 -99 l0 -35 -120 0 -120 0 0 35 0 35 120 0 120
0 0 -35z m0 -190 l0 -75 -120 0 -120 0 0 75 0 75 120 0 120 0 0 -75z"/>
<path d="M3907 2902 c-48 -48 -87 -94 -87 -102 0 -19 160 -180 179 -180 16 0
181 168 181 184 0 11 -170 186 -180 186 -3 0 -45 -39 -93 -88z m141 -55 l43
-44 -45 -49 -44 -49 -46 45 c-25 24 -46 48 -46 52 0 8 82 87 90 88 3 0 25 -20
48 -43z"/>
<path d="M851 2522 c-13 -25 5 -52 34 -52 29 0 39 14 31 46 -8 29 -50 34 -65
6z"/>
<path d="M1071 2526 c-19 -22 -4 -56 23 -56 32 0 53 26 39 48 -14 23 -47 27
-62 8z"/>
<path d="M1224 2526 c-3 -8 -4 -23 -2 -33 5 -25 61 -25 66 0 7 37 -51 67 -64
33z"/>
<path d="M3864 2526 c-12 -31 0 -51 31 -51 27 0 30 3 30 30 0 25 -4 30 -28 33
-17 2 -29 -2 -33 -12z"/>
<path d="M4089 2524 c-17 -21 0 -49 31 -49 31 0 48 28 31 49 -8 9 -21 16 -31
16 -10 0 -23 -7 -31 -16z"/>
<path d="M963 2400 c-31 -13 -35 -45 -31 -292 3 -209 4 -217 26 -240 12 -14
22 -37 22 -52 0 -55 56 -124 119 -145 19 -6 66 -11 106 -11 58 0 78 4 99 21
l26 20 0 339 c0 281 -2 340 -14 349 -18 15 -321 24 -353 11z m287 -235 l0
-165 -65 0 c-66 0 -124 -17 -157 -47 -17 -15 -18 -8 -18 174 0 104 3 193 7
196 3 4 57 7 120 7 l113 0 0 -165z m-2 -332 l-3 -87 -64 3 c-35 1 -72 8 -82
14 -30 19 -41 55 -29 93 17 49 44 64 118 64 l63 0 -3 -87z"/>
<path d="M1102 2256 c-6 -14 -25 -35 -41 -47 -17 -13 -31 -31 -31 -41 0 -18
83 -108 100 -108 13 0 112 101 108 110 -8 20 -98 110 -110 110 -8 0 -20 -11
-26 -24z m48 -71 c9 -11 9 -18 -3 -35 -14 -20 -14 -20 -32 0 -15 16 -15 22 -5
35 16 19 24 19 40 0z"/>
<path d="M1137 1859 c-36 -21 -8 -77 32 -64 21 6 35 31 25 46 -11 18 -40 27
-57 18z"/>
<path d="M3922 2315 c-39 -41 -72 -82 -72 -93 0 -18 134 -162 151 -162 5 0 21
15 36 33 16 17 47 51 70 73 24 23 43 47 43 54 0 12 -121 147 -144 162 -6 3
-43 -26 -84 -67z m119 -61 l34 -36 -35 -29 c-19 -16 -37 -29 -40 -29 -3 0 -21
14 -40 30 l-35 29 34 35 c19 20 38 36 41 36 3 0 22 -16 41 -36z"/>
<path d="M3864 1956 c-12 -31 0 -51 31 -51 27 0 30 3 30 30 0 25 -4 30 -28 33
-17 2 -29 -2 -33 -12z"/>
<path d="M3999 1954 c-16 -20 -1 -48 29 -52 24 -4 45 28 36 52 -8 21 -48 21
-65 0z"/>
<path d="M3834 1766 c-13 -34 4 -47 53 -44 44 3 48 5 48 28 0 23 -4 25 -48 28
-35 2 -49 -1 -53 -12z"/>
<path d="M3837 1683 c-14 -13 -6 -43 13 -53 45 -24 102 5 87 44 -5 11 -19 16
-50 16 -24 0 -47 -3 -50 -7z"/>
<path d="M2090 1619 c-9 -15 -8 -24 1 -35 18 -21 57 -18 64 6 14 44 -44 69
-65 29z"/>
<path d="M2224 1615 c-8 -32 6 -48 37 -43 19 2 24 9 24 33 0 25 -4 31 -27 33
-22 3 -29 -2 -34 -23z"/>
<path d="M2361 1622 c-20 -38 31 -71 58 -38 9 11 10 20 1 35 -13 26 -46 27
-59 3z"/>
</g>
</svg>
